<?xml version="1.0" encoding="UTF-8"?>
<svg width="430px" height="130px" viewBox="0 0 430 130" version="1.1" xmlns="http://www.w3.org/2000/svg" xmlns:xlink="http://www.w3.org/1999/xlink">
    <!-- Generator: Sketch 53.2 (72643) - https://sketchapp.com -->
    <title>Brand/Logo/Vertical</title>
    <desc>Created with Sketch.</desc>
    <defs>
        <path d="M65.0702703,48.3752483 L65.0702703,48.3812421 C65.0350491,48.3802163 64.9999139,48.3792051 64.9648649,48.3782085 C64.9298158,48.3792051 64.8946807,48.3802163 64.8594595,48.3812421 L64.8594595,48.3752483 C58.6361545,48.2026626 55.1530149,48.4955697 54.4100404,49.2539696 C54.4067869,49.2595836 54.4040424,49.2645987 54.4018092,49.2689707 C54.1200893,49.8204984 53.9792315,50.6667953 53.9792315,51.807887 L53.9792315,78.192113 C53.9792315,79.3332047 54.1200893,80.1795016 54.4018092,80.7310293 C54.4040424,80.7354013 54.4067869,80.7404164 54.4100404,80.7460304 C55.1530149,81.5044303 58.6361545,81.7973374 64.8594595,81.6247517 L64.8594595,81.6187579 C64.8946807,81.6197837 64.9298158,81.6207949 64.9648649,81.6217915 C64.9999139,81.6207949 65.0350491,81.6197837 65.0702703,81.6187579 L65.0702703,81.6247517 C71.2935752,81.7973374 74.7767149,81.5044303 75.5196893,80.7460304 C75.5229428,80.7404164 75.5256874,80.7354013 75.5279206,80.7310293 C75.8096404,80.1795016 75.9504983,79.3332047 75.9504983,78.192113 L75.9504983,51.807887 C75.9504983,50.6667953 75.8096404,49.8204984 75.5279206,49.2689707 C75.5256874,49.2645987 75.5229428,49.2595836 75.5196893,49.2539696 C74.7767149,48.4955697 71.2935752,48.2026626 65.0702703,48.3752483 Z M64.8594595,82.7564638 C58.5641813,82.7568794 51.8760981,82.7758952 44.7952099,82.8135112 C44.7684528,82.8136533 44.7448723,82.8072945 44.7244685,82.7944587 L41.3019011,82.8454253 C39.9496457,82.8454253 38.94486,82.9405149 38.2875136,83.1306968 C37.6301673,83.3208788 37.2075938,83.701237 37.0197806,84.2717828 C36.9822179,84.4239284 36.8695317,84.5 36.6817185,84.5 C36.4939052,84.5 36.4,84.4239284 36.4,84.2717828 C36.5126879,83.1687275 36.6253742,81.4951515 36.7380621,79.2510045 C36.8507501,77.0068576 36.9070932,75.1811383 36.9070932,73.7737919 C36.9070932,73.6977191 37.0197795,73.6596833 37.2451554,73.6596833 C37.4705312,73.6596833 37.5832175,73.6977191 37.5832175,73.7737919 C37.6959054,76.7406302 38.2968988,78.8230913 39.3862156,80.0212376 C40.4755324,81.2193838 42.2785125,81.818448 44.7952099,81.818448 C46.4855291,81.818448 47.6875158,81.7423763 48.4012061,81.5902308 C49.1148964,81.4380852 49.6032035,81.1147808 49.8661421,80.6203077 C50.1290806,80.1258346 50.2605479,79.2890466 50.2605479,78.1099186 L50.2605479,51.8900814 C50.2605479,50.7109534 50.1290806,49.8741654 49.8661421,49.3796923 C49.6032035,48.8852192 49.1148964,48.5619148 48.4012061,48.4097692 C47.6875158,48.2576237 46.4855291,48.181552 44.7952099,48.181552 C42.2785125,48.181552 40.4755324,48.7806162 39.3862156,49.9787624 C38.2968988,51.1769087 37.6959054,53.2593698 37.5832175,56.2262081 C37.5832175,56.3022809 37.4705312,56.3403167 37.2451554,56.3403167 C37.0197795,56.3403167 36.9070932,56.3022809 36.9070932,56.2262081 C36.9070932,54.8188617 36.8507501,52.9931424 36.7380621,50.7489955 C36.6253742,48.5048485 36.5126879,46.8312725 36.4,45.7282172 C36.4,45.5760716 36.4939052,45.5 36.6817185,45.5 C36.8695317,45.5 36.9822179,45.5760716 37.0197806,45.7282172 C37.2075938,46.298763 37.6301673,46.6791212 38.2875136,46.8693032 C38.94486,47.0594851 39.9496457,47.1545747 41.3019011,47.1545747 L44.7244685,47.2055413 C44.7448723,47.1927055 44.7684528,47.1863467 44.7952099,47.1864888 C51.8760981,47.2241048 58.5641813,47.2431206 64.8594595,47.2435362 C71.2161835,47.2435431 77.974537,47.224525 85.1345198,47.1864888 C85.161277,47.1863467 85.1848574,47.1927055 85.2052612,47.2055413 L88.6278286,47.1545747 C89.980084,47.1545747 90.9848697,47.0594851 91.6422161,46.8693032 C92.2995624,46.6791212 92.7221359,46.298763 92.9099491,45.7282172 C92.9475118,45.5760716 93.060198,45.5 93.2480113,45.5 C93.4358245,45.5 93.5297297,45.5760716 93.5297297,45.7282172 C93.4170418,46.8312725 93.3043555,48.5048485 93.1916676,50.7489955 C93.0789796,52.9931424 93.0226365,54.8188617 93.0226365,56.2262081 C93.0226365,56.3022809 92.9099503,56.3403167 92.6845744,56.3403167 C92.4591985,56.3403167 92.3465122,56.3022809 92.3465122,56.2262081 C92.2338243,53.2593698 91.6328309,51.1769087 90.5435141,49.9787624 C89.4541973,48.7806162 87.6512173,48.181552 85.1345198,48.181552 C83.4442007,48.181552 82.2422139,48.2576237 81.5285236,48.4097692 C80.8148333,48.5619148 80.3265262,48.8852192 80.0635877,49.3796923 C79.8006491,49.8741654 79.6691818,50.7109534 79.6691818,51.8900814 L79.6691818,78.1099186 C79.6691818,79.2890466 79.8006491,80.1258346 80.0635877,80.6203077 C80.3265262,81.1147808 80.8148333,81.4380852 81.5285236,81.5902308 C82.2422139,81.7423763 83.4442007,81.818448 85.1345198,81.818448 C87.6512173,81.818448 89.4541973,81.2193838 90.5435141,80.0212376 C91.6328309,78.8230913 92.2338243,76.7406302 92.3465122,73.7737919 C92.3465122,73.6977191 92.4591985,73.6596833 92.6845744,73.6596833 C92.9099503,73.6596833 93.0226365,73.6977191 93.0226365,73.7737919 C93.0226365,75.1811383 93.0789796,77.0068576 93.1916676,79.2510045 C93.3043555,81.4951515 93.4170418,83.1687275 93.5297297,84.2717828 C93.5297297,84.4239284 93.4358245,84.5 93.2480113,84.5 C93.060198,84.5 92.9475118,84.4239284 92.9099491,84.2717828 C92.7221359,83.701237 92.2995624,83.3208788 91.6422161,83.1306968 C90.9848697,82.9405149 89.980084,82.8454253 88.6278286,82.8454253 L85.2052612,82.7944587 C85.1848574,82.8072945 85.161277,82.8136533 85.1345198,82.8135112 C77.974537,82.775475 71.2161835,82.7564569 64.8594595,82.7564569 Z" id="path-1"></path>
        <path d="M23.3749462,0 C26.08697,0 28.3684797,0.194142897 30.2195436,0.582434515 C32.0706076,0.970726133 33.9216437,1.63944055 35.7727077,2.58859784 C36.0740436,2.7611719 36.246233,2.91217193 36.289281,3.04160247 C36.332329,3.171033 36.3969001,3.4946045 36.4829961,4.01232666 L37.2578562,11.7134052 C37.2578562,11.8428358 37.1394759,11.9183358 36.902712,11.9399076 C36.665948,11.9614793 36.5260441,11.9075507 36.4829961,11.7781202 C34.5027882,4.5731535 30.0689108,0.970724191 23.1812311,0.970724191 C19.5651993,0.970724191 16.3796952,1.76886721 13.6246233,3.3651772 C10.8695514,4.96148718 8.73870748,7.23727336 7.23202754,10.192604 C5.7253476,13.1479347 4.97201893,16.5885782 4.97201893,20.5146379 C4.97201893,24.2681235 5.80068047,27.7087671 7.4580284,30.8366718 C9.11537633,33.9645765 11.3538387,36.4345056 14.1734825,38.2465331 C16.9931264,40.0585607 20.0602503,40.9645609 23.3749462,40.9645609 C26.904882,40.9645609 29.7675309,40.1017035 31.9629789,38.375963 C34.1584268,36.6502225 35.8372735,34.0185077 36.9995695,30.4807396 C36.9995695,30.3944526 37.1071878,30.3513097 37.3224278,30.3513097 C37.6237638,30.3513097 37.7744296,30.416024 37.7744296,30.5454545 L37.1287128,37.6640986 C37.0856648,38.1818208 37.0210938,38.5053923 36.9349978,38.6348228 C36.8489018,38.7642533 36.6767124,38.9152534 36.4184244,39.0878274 C34.1799285,40.1664153 32.0813701,40.9214154 30.1226861,41.3528505 C28.1640022,41.7842857 25.914778,42 23.3749462,42 C18.8549063,42 14.819217,41.1047855 11.2677572,39.3143297 C7.71629734,37.5238739 4.95050494,35.010802 2.97029703,31.7750385 C0.990089107,28.539275 -8.82325658e-16,24.8289886 0,20.6440678 C-8.82325658e-16,16.5885776 1.01161278,12.996934 3.0348687,9.86902928 C5.05812462,6.74112458 7.84544069,4.31433837 11.3969005,2.58859784 C14.9483604,0.862857319 18.9410023,0 23.3749462,0 Z M56.0482134,42 C53.5514295,42 51.3452527,41.3852142 49.4296168,40.155624 C47.5139809,38.9260339 46.0396091,37.2650336 45.0064571,35.1725732 C43.9733051,33.0801128 43.4567369,30.8043266 43.4567369,28.3451464 C43.4567369,25.540818 44.1347327,23.1571747 45.4907447,21.1941448 C46.8467566,19.231115 48.5901744,17.7642576 50.7210503,16.7935285 C52.8519262,15.8227995 55.0150557,15.3374422 57.2105036,15.3374422 C59.7503355,15.3374422 61.9672741,15.9630138 63.861386,17.2141757 C65.755498,18.4653375 67.2083461,20.1155522 68.2199741,22.164869 C69.231602,24.2141859 69.7374084,26.3821149 69.7374084,28.6687211 C69.7374084,31.3436189 69.1132218,33.6841194 67.8648299,35.6902928 C66.6164379,37.6964661 64.948353,39.2496093 62.8605251,40.3497689 C60.7726972,41.4499285 58.5019493,42 56.0482134,42 Z M57.920792,40.770416 C60.2884319,40.770416 62.1179444,39.9291301 63.4093843,38.2465331 C64.7008243,36.5639361 65.3465346,33.9753642 65.3465346,30.4807396 C65.3465346,27.8058418 64.9052992,25.4114127 64.0228152,23.2973806 C63.1403313,21.1833484 61.9242436,19.5331338 60.3745156,18.3466872 C58.8247877,17.1602406 57.0598462,16.5670262 55.0796383,16.5670262 C52.7550464,16.5670262 50.9578194,17.4083121 49.6879035,19.0909091 C48.4179875,20.7735061 47.7830391,23.1895066 47.7830391,26.3389831 C47.7830391,28.9707373 48.2135126,31.3867378 49.0744726,33.587057 C49.9354326,35.7873762 51.1407584,37.5346622 52.6904864,38.8289676 C54.2402143,40.123273 55.9836321,40.770416 57.920792,40.770416 Z M92.1437795,37.7935285 C92.3159714,37.7935285 92.4451135,37.8906 92.5312095,38.0847458 C92.6173055,38.2788916 92.5957818,38.4191059 92.4666378,38.5053929 C90.8738619,39.7565548 89.4425374,40.6409835 88.1726215,41.1587057 C86.9027055,41.6764279 85.5789994,41.9352851 84.2014635,41.9352851 C82.3934476,41.9352851 80.9083139,41.5254278 79.746018,40.7057011 C78.583722,39.8859743 78.0025827,38.5269741 78.0025827,36.6286595 L78.0025827,21.4206471 C78.0025827,20.2989158 77.9272499,19.5007728 77.7765819,19.0261941 C77.6259139,18.5516155 77.3353443,18.2388297 76.9048643,18.0878274 C76.4743843,17.9368251 75.7425793,17.8613251 74.7094273,17.8613251 C74.5372354,17.8613251 74.4511407,17.7211108 74.4511407,17.440678 C74.4511407,17.1602451 74.5372354,17.0200308 74.7094273,17.0200308 C76.4313473,16.9768873 77.8303862,16.5131015 78.9065862,15.6286595 C79.9827861,14.7442175 80.6069728,13.5685744 80.7791647,12.1016949 C80.7791647,11.9722644 80.9513542,11.9075501 81.2957381,11.9075501 C81.5970741,11.9075501 81.7477399,11.9722644 81.7477399,12.1016949 L81.7477399,16.8906009 C83.9001398,16.8474574 86.8919308,16.6317431 90.7232026,16.2434515 C90.8092986,16.2434515 90.9061552,16.4052372 91.0137751,16.7288136 C91.1213951,17.0523899 91.1752043,17.4083186 91.1752043,17.7966102 C91.1752043,18.1417583 91.0998715,18.4976869 90.9492035,18.8644068 C90.7985355,19.2311266 90.6371079,19.3929124 90.4649159,19.3497689 C88.097276,18.7457597 85.1915797,18.4006168 81.7477399,18.3143297 L81.7477399,34.4283513 C81.7477399,36.1972353 82.1889752,37.5130928 83.0714592,38.375963 C83.9539432,39.2388333 85.2130782,39.6702619 86.8489021,39.6702619 C88.7430141,39.6702619 90.4649082,39.0662618 92.0146361,37.8582435 L92.1437795,37.7935285 Z M113.969005,37.7935285 C114.141197,37.7935285 114.270339,37.8906 114.356435,38.0847458 C114.442531,38.2788916 114.421008,38.4191059 114.291864,38.5053929 C112.699088,39.7565548 111.267763,40.6409835 109.997847,41.1587057 C108.727931,41.6764279 107.404225,41.9352851 106.026689,41.9352851 C104.218674,41.9352851 102.73354,41.5254278 101.571244,40.7057011 C100.408948,39.8859743 99.8278087,38.5269741 99.8278087,36.6286595 L99.8278087,21.4206471 C99.8278087,20.2989158 99.7524758,19.5007728 99.6018079,19.0261941 C99.4511399,18.5516155 99.1605702,18.2388297 98.7300902,18.0878274 C98.2996103,17.9368251 97.5678053,17.8613251 96.5346533,17.8613251 C96.3624613,17.8613251 96.2763666,17.7211108 96.2763666,17.440678 C96.2763666,17.1602451 96.3624613,17.0200308 96.5346533,17.0200308 C98.2565732,16.9768873 99.6556122,16.5131015 100.731812,15.6286595 C101.808012,14.7442175 102.432199,13.5685744 102.604391,12.1016949 C102.604391,11.9722644 102.77658,11.9075501 103.120964,11.9075501 C103.4223,11.9075501 103.572966,11.9722644 103.572966,12.1016949 L103.572966,16.8906009 C105.725366,16.8474574 108.717157,16.6317431 112.548429,16.2434515 C112.634525,16.2434515 112.731381,16.4052372 112.839001,16.7288136 C112.946621,17.0523899 113.00043,17.4083186 113.00043,17.7966102 C113.00043,18.1417583 112.925097,18.4976869 112.774429,18.8644068 C112.623761,19.2311266 112.462334,19.3929124 112.290142,19.3497689 C109.922502,18.7457597 107.016806,18.4006168 103.572966,18.3143297 L103.572966,34.4283513 C103.572966,36.1972353 104.014201,37.5130928 104.896685,38.375963 C105.779169,39.2388333 107.038304,39.6702619 108.674128,39.6702619 C110.56824,39.6702619 112.290134,39.0662618 113.839862,37.8582435 L113.969005,37.7935285 Z M130.628497,42 C128.131714,42 125.925537,41.3852142 124.009901,40.155624 C122.094265,38.9260339 120.619893,37.2650336 119.586741,35.1725732 C118.553589,33.0801128 118.037021,30.8043266 118.037021,28.3451464 C118.037021,25.540818 118.715017,23.1571747 120.071029,21.1941448 C121.427041,19.231115 123.170458,17.7642576 125.301334,16.7935285 C127.43221,15.8227995 129.59534,15.3374422 131.790788,15.3374422 C134.330619,15.3374422 136.547558,15.9630138 138.44167,17.2141757 C140.335782,18.4653375 141.78863,20.1155522 142.800258,22.164869 C143.811886,24.2141859 144.317692,26.3821149 144.317692,28.6687211 C144.317692,31.3436189 143.693506,33.6841194 142.445114,35.6902928 C141.196722,37.6964661 139.528637,39.2496093 137.440809,40.3497689 C135.352981,41.4499285 133.082233,42 130.628497,42 Z M132.501076,40.770416 C134.868716,40.770416 136.698228,39.9291301 137.989668,38.2465331 C139.281108,36.5639361 139.926819,33.9753642 139.926819,30.4807396 C139.926819,27.8058418 139.485583,25.4114127 138.603099,23.2973806 C137.720615,21.1833484 136.504528,19.5331338 134.9548,18.3466872 C133.405072,17.1602406 131.64013,16.5670262 129.659922,16.5670262 C127.33533,16.5670262 125.538103,17.4083121 124.268187,19.0909091 C122.998272,20.7735061 122.363323,23.1895066 122.363323,26.3389831 C122.363323,28.9707373 122.793797,31.3867378 123.654757,33.587057 C124.515717,35.7873762 125.721042,37.5346622 127.27077,38.8289676 C128.820498,40.123273 130.563916,40.770416 132.501076,40.770416 Z M178.605252,40.3821263 C178.734396,40.3821263 178.798967,40.5115549 178.798967,40.770416 C178.798967,41.0292771 178.734396,41.1587057 178.605252,41.1587057 C177.615148,41.1587057 176.840295,41.1371343 176.280671,41.0939908 L172.793801,41.0292758 L169.242359,41.0939908 C168.682735,41.1371343 167.907882,41.1587057 166.917778,41.1587057 C166.788634,41.1587057 166.724063,41.0292771 166.724063,40.770416 C166.724063,40.5115549 166.788634,40.3821263 166.917778,40.3821263 C168.080074,40.3821263 168.941021,40.2634835 169.500645,40.0261941 C170.060269,39.7889048 170.436934,39.3682619 170.63065,38.7642527 C170.824366,38.1602435 170.921222,37.2111005 170.921222,35.9167951 L170.921222,25.4329738 C170.921222,22.8875065 170.43694,21.0107919 169.46836,19.8027735 C168.49978,18.5947551 167.003884,17.990755 164.980628,17.990755 C163.64614,17.990755 162.300911,18.3466837 160.944899,19.0585516 C159.588887,19.7704196 158.351275,20.7519198 157.232027,22.0030817 L157.232027,35.9167951 C157.232027,37.2111005 157.328884,38.1602435 157.5226,38.7642527 C157.716316,39.3682619 158.09298,39.7889048 158.652604,40.0261941 C159.212228,40.2634835 160.073175,40.3821263 161.235471,40.3821263 C161.364615,40.3821263 161.429186,40.5115549 161.429186,40.770416 C161.429186,41.0292771 161.364615,41.1587057 161.235471,41.1587057 C160.245367,41.1587057 159.470515,41.1371343 158.910891,41.0939908 L155.42402,41.0292758 L151.872578,41.0939908 C151.312954,41.1371343 150.538102,41.1587057 149.547998,41.1587057 C149.418854,41.1587057 149.354283,41.0292771 149.354283,40.770416 C149.354283,40.5115549 149.418854,40.3821263 149.547998,40.3821263 C150.710294,40.3821263 151.571241,40.2634835 152.130865,40.0261941 C152.690489,39.7889048 153.067153,39.3682619 153.260869,38.7642527 C153.454585,38.1602435 153.551442,37.2111005 153.551442,35.9167951 L153.551442,23.1032357 C153.551442,21.6363563 153.379252,20.5793561 153.034868,19.9322034 C152.690484,19.2850507 152.109345,18.9614792 151.291433,18.9614792 C150.602665,18.9614792 149.440387,19.2850507 147.804563,19.9322034 L147.675419,19.9322034 C147.503227,19.9322034 147.384847,19.8351319 147.320275,19.6409861 C147.255703,19.4468403 147.309512,19.306626 147.481704,19.220339 L154.972019,15.6610169 L155.359449,15.596302 C155.746881,15.596302 156.155831,16.092445 156.586311,17.0847458 C157.016791,18.0770466 157.232027,19.3497611 157.232027,20.9029276 C158.867851,19.004613 160.492889,17.6024699 162.107189,16.6964561 C163.721489,15.7904423 165.389574,15.3374422 167.111493,15.3374422 C169.522181,15.3374422 171.373218,16.0061566 172.664658,17.3436055 C173.956097,18.6810545 174.601808,20.6440549 174.601808,23.2326656 L174.601808,35.9167951 C174.601808,37.2111005 174.698664,38.1602435 174.89238,38.7642527 C175.086096,39.3682619 175.462761,39.7889048 176.022385,40.0261941 C176.582009,40.2634835 177.442956,40.3821263 178.605252,40.3821263 Z M188.872148,8.02465331 C187.96814,8.02465331 187.26862,7.78736755 186.773568,7.31278891 C186.278516,6.83821026 186.030994,6.16949584 186.030994,5.30662558 C186.030994,4.44375532 186.278516,3.77504089 186.773568,3.30046225 C187.26862,2.82588361 187.96814,2.58859784 188.872148,2.58859784 C189.733108,2.58859784 190.400342,2.82588361 190.87387,3.30046225 C191.347398,3.77504089 191.584158,4.44375532 191.584158,5.30662558 C191.584158,6.16949584 191.347398,6.83821026 190.87387,7.31278891 C190.400342,7.78736755 189.733108,8.02465331 188.872148,8.02465331 Z M183.448127,41.1587057 C183.362031,41.1587057 183.318984,41.0292771 183.318984,40.770416 C183.318984,40.5115549 183.362031,40.3821263 183.448127,40.3821263 C184.610423,40.3821263 185.482132,40.2634835 186.06328,40.0261941 C186.644428,39.7889048 187.042616,39.3574762 187.257856,38.7318952 C187.473096,38.1063143 187.580714,37.1679569 187.580714,35.9167951 L187.580714,23.8151002 C187.580714,22.2619337 187.419287,21.1402192 187.096427,20.449923 C186.773567,19.7596267 186.224713,19.4144838 185.449849,19.4144838 C184.674985,19.4144838 183.70642,19.7164839 182.544124,20.3204931 L182.479552,20.3204931 C182.30736,20.3204931 182.178218,20.2126359 182.092122,19.9969183 C182.006026,19.7812008 182.02755,19.6302007 182.156694,19.5439137 L190.551011,15.6610169 L190.809298,15.596302 C190.895394,15.596302 191.003012,15.6502306 191.132156,15.7580894 C191.2613,15.8659482 191.325871,15.984591 191.325871,16.1140216 C191.325871,16.4160262 191.304348,17.2788835 191.2613,18.7026194 C191.218252,20.1263553 191.196728,21.8089271 191.196728,23.7503852 L191.196728,35.9167951 C191.196728,37.2111005 191.304346,38.1602435 191.519586,38.7642527 C191.734826,39.3682619 192.122253,39.7889048 192.681877,40.0261941 C193.241501,40.2634835 194.102448,40.3821263 195.264744,40.3821263 C195.393888,40.3821263 195.458459,40.5115549 195.458459,40.770416 C195.458459,41.0292771 195.393888,41.1587057 195.264744,41.1587057 C194.27464,41.1587057 193.478264,41.1371343 192.875592,41.0939908 L189.388721,41.0292758 L185.901851,41.0939908 C185.299179,41.1371343 184.481279,41.1587057 183.448127,41.1587057 Z M204.175635,20.1263482 C204.175635,21.6363712 204.670679,22.8335857 205.660783,23.7180277 C206.650887,24.6024698 208.092973,25.5408271 209.987085,26.5331279 C211.493765,27.3097111 212.666806,27.9784255 213.506242,28.5392912 C214.345678,29.1001569 215.066721,29.8335856 215.669393,30.7395994 C216.272065,31.6456132 216.573396,32.7457562 216.573396,34.0400616 C216.573396,36.2403808 215.755496,38.095524 214.119673,39.605547 C212.483849,41.11557 210.26691,41.8705701 207.46879,41.8705701 C205.187246,41.8705701 203.120973,41.2234271 201.269909,39.9291217 C201.011621,39.7565477 200.882479,39.4976905 200.882479,39.1525424 L200.753336,34.1047766 C200.753336,33.975346 200.871716,33.899846 201.10848,33.8782743 C201.345244,33.8567025 201.485148,33.9106311 201.528196,34.0400616 C202.346108,36.1972373 203.41153,37.8366662 204.724494,38.9583975 C206.037458,40.0801289 207.554877,40.6409861 209.276797,40.6409861 C210.697381,40.6409861 211.773565,40.2958432 212.505381,39.605547 C213.237197,38.9152508 213.560052,37.9013934 213.473956,36.5639445 C213.430908,34.924491 212.925101,33.6625622 211.956521,32.7781202 C210.987941,31.8936782 209.535093,30.9768923 207.597933,30.027735 C206.177349,29.3374388 205.047356,28.7118672 204.20792,28.1510015 C203.368485,27.5901359 202.658203,26.8567071 202.077055,25.9506934 C201.495907,25.0446796 201.205338,23.9229651 201.205338,22.5855162 C201.205338,20.2557665 202.077047,18.4761233 203.82049,17.2465331 C205.563934,16.016943 207.619445,15.4021572 209.987085,15.4021572 C211.709005,15.4021572 213.280234,15.7257287 214.700818,16.3728814 C214.959106,16.4591684 215.120533,16.5562398 215.185105,16.6640986 C215.249677,16.7719574 215.281963,16.9121717 215.281963,17.0847458 C215.281963,17.947616 215.260439,18.6163304 215.217391,19.0909091 L215.152819,21.8089368 C215.152819,21.8952239 215.023677,21.9383667 214.765389,21.9383667 C214.507101,21.9383667 214.377959,21.8952239 214.377959,21.8089368 C214.377959,20.9029231 214.03358,20.0508514 213.344812,19.2526965 C212.656044,18.4545415 211.795097,17.8181842 210.761945,17.3436055 C209.728793,16.8690269 208.695657,16.6317411 207.662505,16.6317411 C206.586305,16.6317411 205.73612,16.9229555 205.111924,17.5053929 C204.487728,18.0878303 204.175635,18.9614734 204.175635,20.1263482 Z M239.560912,37.7935285 C239.733104,37.7935285 239.862246,37.8906 239.948342,38.0847458 C240.034438,38.2788916 240.012915,38.4191059 239.883771,38.5053929 C238.290995,39.7565548 236.85967,40.6409835 235.589754,41.1587057 C234.319838,41.6764279 232.996132,41.9352851 231.618596,41.9352851 C229.81058,41.9352851 228.325447,41.5254278 227.163151,40.7057011 C226.000855,39.8859743 225.419716,38.5269741 225.419716,36.6286595 L225.419716,21.4206471 C225.419716,20.2989158 225.344383,19.5007728 225.193715,19.0261941 C225.043047,18.5516155 224.752477,18.2388297 224.321997,18.0878274 C223.891517,17.9368251 223.159712,17.8613251 222.12656,17.8613251 C221.954368,17.8613251 221.868273,17.7211108 221.868273,17.440678 C221.868273,17.1602451 221.954368,17.0200308 222.12656,17.0200308 C223.84848,16.9768873 225.247519,16.5131015 226.323719,15.6286595 C227.399919,14.7442175 228.024106,13.5685744 228.196298,12.1016949 C228.196298,11.9722644 228.368487,11.9075501 228.712871,11.9075501 C229.014207,11.9075501 229.164873,11.9722644 229.164873,12.1016949 L229.164873,16.8906009 C231.317273,16.8474574 234.309064,16.6317431 238.140335,16.2434515 C238.226431,16.2434515 238.323288,16.4052372 238.430908,16.7288136 C238.538528,17.0523899 238.592337,17.4083186 238.592337,17.7966102 C238.592337,18.1417583 238.517004,18.4976869 238.366336,18.8644068 C238.215668,19.2311266 238.054241,19.3929124 237.882049,19.3497689 C235.514409,18.7457597 232.608713,18.4006168 229.164873,18.3143297 L229.164873,34.4283513 C229.164873,36.1972353 229.606108,37.5130928 230.488592,38.375963 C231.371076,39.2388333 232.630211,39.6702619 234.266035,39.6702619 C236.160147,39.6702619 237.882041,39.0662618 239.431769,37.8582435 L239.560912,37.7935285 Z" id="path-3"></path>
    </defs>
    <g id="Brand/Logo/Vertical" stroke="none" stroke-width="1" fill="none" fill-rule="evenodd">
        <rect fill="#FFFFFF" x="0" y="0" width="430" height="130"></rect>
        <g id="Brand/Logo-Icon">
            <g id="Group">
                <g id="🎨Brand-Color">
                    <g id="Brand/🎨Color/1/Main" fill="#03131B">
                        <rect id="🎨Brand-Color" x="0" y="0" width="130" height="130"></rect>
                    </g>
                    <mask id="mask-2" fill="white">
                        <use xlink:href="#path-1"></use>
                    </mask>
                    <use id="Mask" fill="#414E5C" xlink:href="#path-1"></use>
                    <g id="Brand/🎨Color/White" mask="url(#mask-2)" fill="#FFFFFF">
                        <rect id="🎨Brand-Color" x="0" y="0" width="130" height="130"></rect>
                    </g>
                </g>
            </g>
        </g>
        <g id="Brand/Logo-Type" transform="translate(130.000000, 25.000000)">
            <g id="🎨Brand-Color" transform="translate(30.000000, 19.000000)">
                <g>
                    <mask id="mask-4" fill="white">
                        <use xlink:href="#path-3"></use>
                    </mask>
                    <use id="Mask" fill="#1F7FCD" xlink:href="#path-3"></use>
                    <g id="Brand/🎨Color/1/Main" mask="url(#mask-4)" fill="#03131B">
                        <g transform="translate(-30.000000, -19.000000)" id="🎨Brand-Color">
                            <rect x="0" y="0" width="300" height="80"></rect>
                        </g>
                    </g>
                </g>
            </g>
        </g>
    </g>
</svg>