<?xml version="1.0" encoding="UTF-8"?>
<svg width="400px" height="200px" viewBox="0 0 400 200" version="1.1" xmlns="http://www.w3.org/2000/svg" xmlns:xlink="http://www.w3.org/1999/xlink">
    <!-- Generator: Sketch 53.2 (72643) - https://sketchapp.com -->
    <title>Brand/Logo/Colored</title>
    <desc>Created with Sketch.</desc>
    <defs>
        <path d="M47.5513514,34.9790257 L47.5513514,34.9833597 C47.5256128,34.9826179 47.4999371,34.9818867 47.4743243,34.9811661 C47.4487115,34.9818867 47.4230359,34.9826179 47.3972973,34.9833597 L47.3972973,34.9790257 C42.8494976,34.854233 40.3041262,35.0660273 39.7611834,35.6144088 C39.7588058,35.6184681 39.7568002,35.6220944 39.7551682,35.6252557 C39.549296,36.0240527 39.4463615,36.6359905 39.4463615,37.4610875 L39.4463615,56.5389125 C39.4463615,57.3640095 39.549296,57.9759473 39.7551682,58.3747443 C39.7568002,58.3779056 39.7588058,58.3815319 39.7611834,58.3855912 C40.3041262,58.9339727 42.8494976,59.145767 47.3972973,59.0209743 L47.3972973,59.0166403 C47.4230359,59.0173821 47.4487115,59.0181133 47.4743243,59.0188339 C47.4999371,59.0181133 47.5256128,59.0173821 47.5513514,59.0166403 L47.5513514,59.0209743 C52.0991511,59.145767 54.6445224,58.9339727 55.1874653,58.3855912 C55.1898428,58.3815319 55.1918485,58.3779056 55.1934804,58.3747443 C55.3993526,57.9759473 55.5022872,57.3640095 55.5022872,56.5389125 L55.5022872,37.4610875 C55.5022872,36.6359905 55.3993526,36.0240527 55.1934804,35.6252557 C55.1918485,35.6220944 55.1898428,35.6184681 55.1874653,35.6144088 C54.6445224,35.0660273 52.0991511,34.854233 47.5513514,34.9790257 Z M47.3972973,59.8392892 C42.7969017,59.8395897 37.9094563,59.8533396 32.7349611,59.8805389 C32.7154078,59.8806416 32.6981759,59.8760437 32.6832655,59.8667624 L30.1821585,59.9036152 C29.1939719,59.9036152 28.4597054,59.9723723 27.9793369,60.1098885 C27.4989684,60.2474047 27.1901647,60.5224329 27.0529166,60.9349814 C27.025467,61.0449944 26.9431193,61.1 26.8058712,61.1 C26.668623,61.1 26.6,61.0449944 26.6,60.9349814 C26.6823489,60.1373876 26.7646965,58.9272634 26.8470454,57.3045725 C26.9293943,55.6818816 26.9705681,54.3617461 26.9705681,53.3441264 C26.9705681,53.28912 27.0529158,53.2616172 27.2176135,53.2616172 C27.3823113,53.2616172 27.4646589,53.28912 27.4646589,53.3441264 C27.5470078,55.4893788 27.9861953,56.9951583 28.7822345,57.8615102 C29.5782737,58.7278622 30.895836,59.1610316 32.7349611,59.1610316 C33.9701943,59.1610316 34.8485692,59.106026 35.3701122,58.996013 C35.8916551,58.8860001 36.2484949,58.6522261 36.4406423,58.294684 C36.6327897,57.937142 36.7288619,57.3320799 36.7288619,56.4794796 L36.7288619,37.5205204 C36.7288619,36.6679201 36.6327897,36.062858 36.4406423,35.705316 C36.2484949,35.3477739 35.8916551,35.1139999 35.3701122,35.003987 C34.8485692,34.893974 33.9701943,34.8389684 32.7349611,34.8389684 C30.895836,34.8389684 29.5782737,35.2721378 28.7822345,36.1384898 C27.9861953,37.0048417 27.5470078,38.5106212 27.4646589,40.6558736 C27.4646589,40.71088 27.3823113,40.7383828 27.2176135,40.7383828 C27.0529158,40.7383828 26.9705681,40.71088 26.9705681,40.6558736 C26.9705681,39.6382539 26.9293943,38.3181184 26.8470454,36.6954275 C26.7646965,35.0727366 26.6823489,33.8626124 26.6,33.0650186 C26.6,32.9550056 26.668623,32.9 26.8058712,32.9 C26.9431193,32.9 27.025467,32.9550056 27.0529166,33.0650186 C27.1901647,33.4775671 27.4989684,33.7525953 27.9793369,33.8901115 C28.4597054,34.0276277 29.1939719,34.0963848 30.1821585,34.0963848 L32.6832655,34.1332376 C32.6981759,34.1239563 32.7154078,34.1193584 32.7349611,34.1194611 C37.9094563,34.1466604 42.7969017,34.1604103 47.3972973,34.1607108 C52.0425957,34.1607158 56.9813924,34.1469642 62.2136876,34.1194611 C62.2332408,34.1193584 62.2504727,34.1239563 62.2653832,34.1332376 L64.7664902,34.0963848 C65.7546768,34.0963848 66.4889433,34.0276277 66.9693118,33.8901115 C67.4496802,33.7525953 67.7584839,33.4775671 67.8957321,33.0650186 C67.9231817,32.9550056 68.0055293,32.9 68.1427775,32.9 C68.2800256,32.9 68.3486486,32.9550056 68.3486486,33.0650186 C68.2662998,33.8626124 68.1839521,35.0727366 68.1016032,36.6954275 C68.0192544,38.3181184 67.9780805,39.6382539 67.9780805,40.6558736 C67.9780805,40.71088 67.8957329,40.7383828 67.7310351,40.7383828 C67.5663374,40.7383828 67.4839897,40.71088 67.4839897,40.6558736 C67.4016408,38.5106212 66.9624534,37.0048417 66.1664142,36.1384898 C65.370375,35.2721378 64.0528126,34.8389684 62.2136876,34.8389684 C60.9784543,34.8389684 60.1000794,34.893974 59.5785365,35.003987 C59.0569936,35.1139999 58.7001538,35.3477739 58.5080064,35.705316 C58.315859,36.062858 58.2197867,36.6679201 58.2197867,37.5205204 L58.2197867,56.4794796 C58.2197867,57.3320799 58.315859,57.937142 58.5080064,58.294684 C58.7001538,58.6522261 59.0569936,58.8860001 59.5785365,58.996013 C60.1000794,59.106026 60.9784543,59.1610316 62.2136876,59.1610316 C64.0528126,59.1610316 65.370375,58.7278622 66.1664142,57.8615102 C66.9624534,56.9951583 67.4016408,55.4893788 67.4839897,53.3441264 C67.4839897,53.28912 67.5663374,53.2616172 67.7310351,53.2616172 C67.8957329,53.2616172 67.9780805,53.28912 67.9780805,53.3441264 C67.9780805,54.3617461 68.0192544,55.6818816 68.1016032,57.3045725 C68.1839521,58.9272634 68.2662998,60.1373876 68.3486486,60.9349814 C68.3486486,61.0449944 68.2800256,61.1 68.1427775,61.1 C68.0055293,61.1 67.9231817,61.0449944 67.8957321,60.9349814 C67.7584839,60.5224329 67.4496802,60.2474047 66.9693118,60.1098885 C66.4889433,59.9723723 65.7546768,59.9036152 64.7664902,59.9036152 L62.2653832,59.8667624 C62.2504727,59.8760437 62.2332408,59.8806416 62.2136876,59.8805389 C56.9813924,59.8530358 52.0425957,59.8392842 47.3972973,59.8392842 Z" id="path-1"></path>
        <path d="M22.1282824,0 C24.695665,0 26.8554941,0.182008966 28.6078347,0.546032357 C30.3601752,0.910055749 32.1124894,1.53697552 33.8648299,2.42681048 C34.1500946,2.58859865 34.3131006,2.73016118 34.3538527,2.85150231 C34.3946048,2.97284344 34.4557321,3.27619172 34.5372363,3.76155624 L35.2707705,10.9813174 C35.2707705,11.1026585 35.1587039,11.1734398 34.9345673,11.1936633 C34.7104307,11.2138868 34.5779884,11.1633288 34.5372363,11.0419877 C32.6626395,4.2873314 28.4652356,0.910053929 21.9448988,0.910053929 C18.521722,0.910053929 15.5061115,1.65831301 12.8979767,3.15485362 C10.289842,4.65139423 8.27264308,6.78494377 6.8463194,9.55556626 C5.41999573,12.3261887 4.70684459,15.5517921 4.70684459,19.232473 C4.70684459,22.7513658 5.49131084,25.9769692 7.06026689,28.9093798 C8.62922293,31.8417905 10.7483006,34.157349 13.4175635,35.8561248 C16.0868264,37.5549006 18.9903703,38.4042758 22.1282824,38.4042758 C25.469955,38.4042758 28.1799293,37.5953471 30.2582867,35.9774653 C32.336644,34.3595836 33.9259523,31.8923509 35.0262591,28.5756934 C35.0262591,28.4947993 35.1281378,28.4543529 35.3318984,28.4543529 C35.6171631,28.4543529 35.7597933,28.5150225 35.7597933,28.6363636 L35.1485148,35.3100924 C35.1077627,35.795457 35.0466355,36.0988052 34.9651312,36.2201464 C34.883627,36.3414875 34.7206211,36.48305 34.4761084,36.6448382 C32.356999,37.6560143 30.3703637,38.3638269 28.5161429,38.7682974 C26.6619221,39.1727678 24.5326566,39.375 22.1282824,39.375 C17.8493113,39.375 14.0288588,38.5357364 10.6668101,36.8571841 C7.30476148,35.1786318 4.68647801,32.8226269 2.81188118,29.7890986 C0.937284355,26.7555703 -8.3526829e-16,23.2771768 0,19.3538136 C-8.3526829e-16,15.5517915 0.957660102,12.1846256 2.87300904,9.25221495 C4.78835797,6.31980429 7.42701719,4.04469222 10.7890658,2.42681048 C14.1511145,0.808928737 17.9308155,0 22.1282824,0 Z M53.0589754,39.375 C50.6953533,39.375 48.6068392,38.7986383 46.7933706,37.6458975 C44.9799019,36.4931568 43.5841632,34.935969 42.6061127,32.9742874 C41.6280622,31.0126058 41.1390443,28.8790562 41.1390443,26.5735747 C41.1390443,23.9445169 41.7808803,21.7098513 43.0645716,19.8695108 C44.3482629,18.0291703 45.9986984,16.6539915 48.0159276,15.743933 C50.0331568,14.8338745 52.0809194,14.3788521 54.1592767,14.3788521 C56.5636509,14.3788521 58.6623528,14.9653254 60.4554455,16.1382897 C62.2485381,17.3112539 63.623901,18.8583301 64.5815754,20.7795647 C65.5392499,22.7007993 66.01808,24.7332327 66.01808,26.876926 C66.01808,29.3846427 65.4271833,31.5788619 64.2453723,33.4596495 C63.0635612,35.340437 61.4844408,36.7965087 59.5079637,37.8279083 C57.5314867,38.8593079 55.3818454,39.375 53.0589754,39.375 Z M54.8316831,38.222265 C57.0730489,38.222265 58.8049873,37.4335595 60.0275505,35.8561248 C61.2501136,34.2786901 61.861386,31.8519039 61.861386,28.5756934 C61.861386,26.0679767 61.4436832,23.8231994 60.6082651,21.8412943 C59.7728469,19.8593892 58.6216172,18.312313 57.1545415,17.2000193 C55.6874657,16.0877256 54.0166544,15.5315871 52.1420576,15.5315871 C49.9414439,15.5315871 48.2400691,16.3202926 47.037882,17.8977273 C45.8356949,19.475162 45.2346103,21.7401624 45.2346103,24.6927966 C45.2346103,27.1600663 45.6421253,29.4250667 46.4571674,31.4878659 C47.2722095,33.5506652 48.4132513,35.1887459 49.8803271,36.4021572 C51.3474029,37.6155685 52.9978384,38.222265 54.8316831,38.222265 Z M87.2294445,35.431433 C87.392453,35.431433 87.5147074,35.5224375 87.5962117,35.7044492 C87.6777159,35.8864608 87.6573401,36.0179118 87.5350838,36.0988059 C86.0272559,37.2717701 84.6722688,38.1009221 83.4700817,38.5862866 C82.2678946,39.0716511 81.0147861,39.3143297 79.7107188,39.3143297 C77.9991304,39.3143297 76.5932038,38.9300886 75.492897,38.1615948 C74.3925902,37.3931009 73.842445,36.1190382 73.842445,34.3393683 L73.842445,20.0818567 C73.842445,19.0302336 73.7711299,18.2819745 73.6284975,17.837057 C73.4858652,17.3921395 73.2107926,17.0989029 72.8032715,16.9573382 C72.3957505,16.8157736 71.7029751,16.7449923 70.7249246,16.7449923 C70.5619161,16.7449923 70.4804131,16.6135414 70.4804131,16.3506356 C70.4804131,16.0877298 70.5619161,15.9562789 70.7249246,15.9562789 C72.3550088,15.9158318 73.6794323,15.4810327 74.6982349,14.6518683 C75.7170375,13.8227039 76.3079342,12.7205385 76.4709426,11.345339 C76.4709426,11.2239979 76.6339486,11.1633282 76.9599654,11.1633282 C77.2452302,11.1633282 77.3878604,11.2239979 77.3878604,11.345339 L77.3878604,15.8349384 C79.4254657,15.7944913 82.2576945,15.5922591 85.8846318,15.2282357 C85.966136,15.2282357 86.0578269,15.3799099 86.1597071,15.6832627 C86.2615874,15.9866155 86.3125268,16.3202986 86.3125268,16.684322 C86.3125268,17.0078984 86.2412117,17.3415815 86.0985793,17.6853814 C85.9559469,18.0291812 85.8031288,18.1808554 85.6401204,18.1404083 C83.3987546,17.5741497 80.6480288,17.2505782 77.3878604,17.1696841 L77.3878604,32.2765794 C77.3878604,33.9349081 77.8055632,35.1685245 78.6409814,35.9774653 C79.4763995,36.7864062 80.6683807,37.1908706 82.2169607,37.1908706 C84.0100533,37.1908706 85.6401131,36.6246205 87.1071888,35.4921032 L87.2294445,35.431433 Z M107.890658,35.431433 C108.053667,35.431433 108.175921,35.5224375 108.257426,35.7044492 C108.33893,35.8864608 108.318554,36.0179118 108.196298,36.0988059 C106.68847,37.2717701 105.333483,38.1009221 104.131296,38.5862866 C102.929108,39.0716511 101.676,39.3143297 100.371933,39.3143297 C98.6603443,39.3143297 97.2544177,38.9300886 96.1541109,38.1615948 C95.0538041,37.3931009 94.5036589,36.1190382 94.5036589,34.3393683 L94.5036589,20.0818567 C94.5036589,19.0302336 94.4323438,18.2819745 94.2897114,17.837057 C94.1470791,17.3921395 93.8720065,17.0989029 93.4644854,16.9573382 C93.0569644,16.8157736 92.364189,16.7449923 91.3861385,16.7449923 C91.2231301,16.7449923 91.1416271,16.6135414 91.1416271,16.3506356 C91.1416271,16.0877298 91.2231301,15.9562789 91.3861385,15.9562789 C93.0162227,15.9158318 94.3406462,15.4810327 95.3594488,14.6518683 C96.3782515,13.8227039 96.9691481,12.7205385 97.1321565,11.345339 C97.1321565,11.2239979 97.2951625,11.1633282 97.6211794,11.1633282 C97.9064441,11.1633282 98.0490743,11.2239979 98.0490743,11.345339 L98.0490743,15.8349384 C100.08668,15.7944913 102.918908,15.5922591 106.545846,15.2282357 C106.62735,15.2282357 106.719041,15.3799099 106.820921,15.6832627 C106.922801,15.9866155 106.973741,16.3202986 106.973741,16.684322 C106.973741,17.0078984 106.902426,17.3415815 106.759793,17.6853814 C106.617161,18.0291812 106.464343,18.1808554 106.301334,18.1404083 C104.059969,17.5741497 101.309243,17.2505782 98.0490743,17.1696841 L98.0490743,32.2765794 C98.0490743,33.9349081 98.4667771,35.1685245 99.3021953,35.9774653 C100.137613,36.7864062 101.329595,37.1908706 102.878175,37.1908706 C104.671267,37.1908706 106.301327,36.6246205 107.768403,35.4921032 L107.890658,35.431433 Z M123.661644,39.375 C121.298022,39.375 119.209508,38.7986383 117.396039,37.6458975 C115.582571,36.4931568 114.186832,34.935969 113.208782,32.9742874 C112.230731,31.0126058 111.741713,28.8790562 111.741713,26.5735747 C111.741713,23.9445169 112.383549,21.7098513 113.66724,19.8695108 C114.950932,18.0291703 116.601367,16.6539915 118.618596,15.743933 C120.635826,14.8338745 122.683588,14.3788521 124.761946,14.3788521 C127.16632,14.3788521 129.265022,14.9653254 131.058114,16.1382897 C132.851207,17.3112539 134.22657,18.8583301 135.184244,20.7795647 C136.141919,22.7007993 136.620749,24.7332327 136.620749,26.876926 C136.620749,29.3846427 136.029852,31.5788619 134.848041,33.4596495 C133.66623,35.340437 132.08711,36.7965087 130.110633,37.8279083 C128.134156,38.8593079 125.984514,39.375 123.661644,39.375 Z M125.434352,38.222265 C127.675718,38.222265 129.407656,37.4335595 130.630219,35.8561248 C131.852782,34.2786901 132.464055,31.8519039 132.464055,28.5756934 C132.464055,26.0679767 132.046352,23.8231994 131.210934,21.8412943 C130.375516,19.8593892 129.224286,18.312313 127.75721,17.2000193 C126.290135,16.0877256 124.619323,15.5315871 122.744726,15.5315871 C120.544113,15.5315871 118.842738,16.3202926 117.640551,17.8977273 C116.438364,19.475162 115.837279,21.7401624 115.837279,24.6927966 C115.837279,27.1600663 116.244794,29.4250667 117.059836,31.4878659 C117.874878,33.5506652 119.01592,35.1887459 120.482996,36.4021572 C121.950072,37.6155685 123.600507,38.222265 125.434352,38.222265 Z M169.079638,37.8582435 C169.201894,37.8582435 169.263022,37.9795828 169.263022,38.222265 C169.263022,38.4649473 169.201894,38.5862866 169.079638,38.5862866 C168.14234,38.5862866 167.408813,38.5660634 166.879035,38.5256163 L163.578131,38.4649461 L160.2161,38.5256163 C159.686322,38.5660634 158.952795,38.5862866 158.015497,38.5862866 C157.893241,38.5862866 157.832113,38.4649473 157.832113,38.222265 C157.832113,37.9795828 157.893241,37.8582435 158.015497,37.8582435 C159.115804,37.8582435 159.930834,37.7470158 160.460611,37.524557 C160.990388,37.3020983 161.346964,36.9077455 161.530348,36.3414869 C161.713733,35.7752283 161.805424,34.8854067 161.805424,33.6719954 L161.805424,23.8434129 C161.805424,21.4570374 161.346969,19.6976174 160.430047,18.5651002 C159.513125,17.4325829 158.09701,16.8663328 156.181661,16.8663328 C154.918346,16.8663328 153.644862,17.2000159 152.361171,17.8673921 C151.077479,18.5347684 149.905874,19.4549248 148.846319,20.6278891 L148.846319,33.6719954 C148.846319,34.8854067 148.93801,35.7752283 149.121395,36.3414869 C149.304779,36.9077455 149.661355,37.3020983 150.191132,37.524557 C150.720909,37.7470158 151.535939,37.8582435 152.636246,37.8582435 C152.758502,37.8582435 152.81963,37.9795828 152.81963,38.222265 C152.81963,38.4649473 152.758502,38.5862866 152.636246,38.5862866 C151.698948,38.5862866 150.965421,38.5660634 150.435643,38.5256163 L147.134739,38.4649461 L143.772707,38.5256163 C143.24293,38.5660634 142.509403,38.5862866 141.572105,38.5862866 C141.449849,38.5862866 141.388721,38.4649473 141.388721,38.222265 C141.388721,37.9795828 141.449849,37.8582435 141.572105,37.8582435 C142.672412,37.8582435 143.487442,37.7470158 144.017219,37.524557 C144.546996,37.3020983 144.903572,36.9077455 145.086956,36.3414869 C145.270341,35.7752283 145.362032,34.8854067 145.362032,33.6719954 L145.362032,21.6592835 C145.362032,20.284084 145.199026,19.2931463 144.873009,18.6864407 C144.546992,18.079735 143.996847,17.7763867 143.222557,17.7763867 C142.570523,17.7763867 141.470233,18.079735 139.921653,18.6864407 L139.799397,18.6864407 C139.636389,18.6864407 139.524322,18.5954362 139.463194,18.4134245 C139.402066,18.2314128 139.453005,18.0999619 139.616014,18.0190678 L146.706844,14.6822034 L147.073611,14.6215331 C147.44038,14.6215331 147.82752,15.0866672 148.235041,16.0169492 C148.642562,16.9472312 148.846319,18.140401 148.846319,19.5964946 C150.394899,17.8168247 151.933268,16.5023155 153.461472,15.6529276 C154.989676,14.8035397 156.568796,14.3788521 158.198881,14.3788521 C160.480998,14.3788521 162.233313,15.0057719 163.455876,16.2596302 C164.678439,17.5134885 165.289711,19.3538014 165.289711,21.780624 L165.289711,33.6719954 C165.289711,34.8854067 165.381402,35.7752283 165.564787,36.3414869 C165.748171,36.9077455 166.104747,37.3020983 166.634524,37.524557 C167.164301,37.7470158 167.979331,37.8582435 169.079638,37.8582435 Z M178.798967,7.52311248 C177.943172,7.52311248 177.280961,7.30065708 176.812311,6.8557396 C176.343662,6.41082212 176.109341,5.78390235 176.109341,4.97496148 C176.109341,4.16602061 176.343662,3.53910084 176.812311,3.09418336 C177.280961,2.64926588 177.943172,2.42681048 178.798967,2.42681048 C179.614009,2.42681048 180.245657,2.64926588 180.69393,3.09418336 C181.142203,3.53910084 181.366336,4.16602061 181.366336,4.97496148 C181.366336,5.78390235 181.142203,6.41082212 180.69393,6.8557396 C180.245657,7.30065708 179.614009,7.52311248 178.798967,7.52311248 Z M173.664227,38.5862866 C173.582723,38.5862866 173.541971,38.4649473 173.541971,38.222265 C173.541971,37.9795828 173.582723,37.8582435 173.664227,37.8582435 C174.764534,37.8582435 175.589752,37.7470158 176.139905,37.524557 C176.690058,37.3020983 177.06701,36.8976339 177.27077,36.3111518 C177.474531,35.7246696 177.57641,34.8449596 177.57641,33.6719954 L177.57641,22.3266564 C177.57641,20.8705628 177.423591,19.8189555 177.117951,19.1718028 C176.81231,18.5246501 176.292728,18.2010786 175.55919,18.2010786 C174.825653,18.2010786 173.908744,18.4842036 172.808437,19.0504622 L172.747309,19.0504622 C172.584301,19.0504622 172.462046,18.9493462 172.380542,18.7471109 C172.299038,18.5448757 172.319414,18.4033132 172.44167,18.3224191 L180.388291,14.6822034 L180.632802,14.6215331 C180.714306,14.6215331 180.816185,14.6720912 180.938441,14.7732088 C181.060698,14.8743264 181.121825,14.9855541 181.121825,15.1068952 C181.121825,15.3900245 181.101449,16.1989533 181.060697,17.5337057 C181.019945,18.8684581 180.999569,20.4458692 180.999569,22.2659861 L180.999569,33.6719954 C180.999569,34.8854067 181.101448,35.7752283 181.305209,36.3414869 C181.508969,36.9077455 181.875732,37.3020983 182.40551,37.524557 C182.935287,37.7470158 183.750317,37.8582435 184.850624,37.8582435 C184.97288,37.8582435 185.034007,37.9795828 185.034007,38.222265 C185.034007,38.4649473 184.97288,38.5862866 184.850624,38.5862866 C183.913325,38.5862866 183.159423,38.5660634 182.588893,38.5256163 L179.287989,38.4649461 L175.987085,38.5256163 C175.416556,38.5660634 174.642278,38.5862866 173.664227,38.5862866 Z M193.286267,18.8684515 C193.286267,20.284098 193.75491,21.4064866 194.692208,22.235651 C195.629506,23.0648154 196.994682,23.9445254 198.787774,24.8748074 C200.214098,25.6028542 201.324576,26.229774 202.119242,26.7555855 C202.913908,27.2813971 203.596496,27.9689865 204.167025,28.8183744 C204.737555,29.6677623 205.022815,30.6991465 205.022815,31.9125578 C205.022815,33.975357 204.248537,35.7145538 202.699957,37.1302003 C201.151377,38.5458468 199.052675,39.2536595 196.403788,39.2536595 C194.243926,39.2536595 192.287855,38.6469629 190.535514,37.4335516 C190.291001,37.2717634 190.168747,37.0290848 190.168747,36.7055085 L190.046491,31.973228 C190.046491,31.8518869 190.158558,31.7811056 190.382694,31.7608821 C190.606831,31.7406586 190.739273,31.7912167 190.780026,31.9125578 C191.554316,33.93491 192.562915,35.4718746 193.805854,36.5234977 C195.048793,37.5751208 196.485284,38.1009245 198.115368,38.1009245 C199.460187,38.1009245 200.478975,37.777353 201.17176,37.1302003 C201.864546,36.4830476 202.170182,35.5325563 202.088678,34.278698 C202.047926,32.7417103 201.569096,31.5586521 200.652174,30.7294877 C199.735251,29.9003233 198.359888,29.0408365 196.526044,28.1510015 C195.181224,27.5038488 194.111497,26.9173755 193.316831,26.3915639 C192.522165,25.8657524 191.849766,25.178163 191.299612,24.328775 C190.749459,23.4793871 190.474386,22.4277798 190.474386,21.1739214 C190.474386,18.9897811 191.299604,17.3213655 192.950064,16.1686248 C194.600525,15.0158841 196.546408,14.4395223 198.787774,14.4395223 C200.417858,14.4395223 201.905288,14.7428706 203.250107,15.3495763 C203.49462,15.4304704 203.647438,15.5214748 203.708566,15.6225924 C203.769694,15.7237101 203.800258,15.855161 203.800258,16.0169492 C203.800258,16.82589 203.779882,17.4528098 203.73913,17.8977273 L203.678002,20.4458783 C203.678002,20.5267724 203.555748,20.5672188 203.311235,20.5672188 C203.066723,20.5672188 202.944468,20.5267724 202.944468,20.4458783 C202.944468,19.5964904 202.618456,18.7976732 201.966422,18.0494029 C201.314389,17.3011326 200.499359,16.7045477 199.521308,16.2596302 C198.543258,15.8147127 197.565222,15.5922573 196.587171,15.5922573 C195.568369,15.5922573 194.763527,15.8652708 194.172621,16.4113059 C193.581716,16.9573409 193.286267,17.7763813 193.286267,18.8684515 Z M226.78433,35.431433 C226.947339,35.431433 227.069593,35.5224375 227.151097,35.7044492 C227.232602,35.8864608 227.212226,36.0179118 227.08997,36.0988059 C225.582142,37.2717701 224.227154,38.1009221 223.024967,38.5862866 C221.82278,39.0716511 220.569672,39.3143297 219.265604,39.3143297 C217.554016,39.3143297 216.14809,38.9300886 215.047783,38.1615948 C213.947476,37.3931009 213.397331,36.1190382 213.397331,34.3393683 L213.397331,20.0818567 C213.397331,19.0302336 213.326016,18.2819745 213.183383,17.837057 C213.040751,17.3921395 212.765678,17.0989029 212.358157,16.9573382 C211.950636,16.8157736 211.257861,16.7449923 210.27981,16.7449923 C210.116802,16.7449923 210.035299,16.6135414 210.035299,16.3506356 C210.035299,16.0877298 210.116802,15.9562789 210.27981,15.9562789 C211.909894,15.9158318 213.234318,15.4810327 214.253121,14.6518683 C215.271923,13.8227039 215.86282,12.7205385 216.025828,11.345339 C216.025828,11.2239979 216.188834,11.1633282 216.514851,11.1633282 C216.800116,11.1633282 216.942746,11.2239979 216.942746,11.345339 L216.942746,15.8349384 C218.980351,15.7944913 221.81258,15.5922591 225.439518,15.2282357 C225.521022,15.2282357 225.612713,15.3799099 225.714593,15.6832627 C225.816473,15.9866155 225.867412,16.3202986 225.867412,16.684322 C225.867412,17.0078984 225.796097,17.3415815 225.653465,17.6853814 C225.510833,18.0291812 225.358015,18.1808554 225.195006,18.1404083 C222.95364,17.5741497 220.202915,17.2505782 216.942746,17.1696841 L216.942746,32.2765794 C216.942746,33.9349081 217.360449,35.1685245 218.195867,35.9774653 C219.031285,36.7864062 220.223266,37.1908706 221.771846,37.1908706 C223.564939,37.1908706 225.194999,36.6246205 226.662075,35.4921032 L226.78433,35.431433 Z" id="path-3"></path>
    </defs>
    <g id="Brand/Logo/Colored" stroke="none" stroke-width="1" fill="none" fill-rule="evenodd">
        <rect fill="#FFFFFF" x="0" y="0" width="400" height="200"></rect>
        <g id="Group" transform="translate(58.000000, 32.000000)">
            <g id="Brand/Logo-Icon" transform="translate(94.000000, 0.000000)">
                <g id="Group">
                    <g id="🎨Brand-Color">
                        <mask id="mask-2" fill="white">
                            <use xlink:href="#path-1"></use>
                        </mask>
                        <use id="Mask" fill="#414E5C" xlink:href="#path-1"></use>
                        <g id="Brand/🎨Color/Black" mask="url(#mask-2)" fill="#000000">
                            <rect id="🎨Brand-Color" x="0" y="0" width="95" height="94"></rect>
                        </g>
                    </g>
                </g>
            </g>
            <g id="Brand/Logo-Type" transform="translate(0.000000, 49.000000)">
                <g id="🎨Brand-Color" transform="translate(28.400000, 17.812500)">
                    <g>
                        <mask id="mask-4" fill="white">
                            <use xlink:href="#path-3"></use>
                        </mask>
                        <use id="Mask" fill="#1F7FCD" xlink:href="#path-3"></use>
                        <g id="Brand/🎨Color/1/Main" mask="url(#mask-4)" fill="#03131B">
                            <g transform="translate(-28.400000, -17.812500)" id="🎨Brand-Color">
                                <rect x="0" y="0" width="284" height="75"></rect>
                            </g>
                        </g>
                    </g>
                </g>
            </g>
        </g>
    </g>
</svg>