<?xml version="1.0" encoding="UTF-8"?>
<svg width="300px" height="300px" viewBox="0 0 300 300" version="1.1" xmlns="http://www.w3.org/2000/svg" xmlns:xlink="http://www.w3.org/1999/xlink">
    <!-- Generator: Sketch 53.2 (72643) - https://sketchapp.com -->
    <title>Brand/Logo Icon</title>
    <desc>Created with Sketch.</desc>
    <defs>
        <path d="M150.162162,111.635188 L150.162162,111.64902 C150.080882,111.646653 149.999801,111.644319 149.918919,111.64202 C149.838036,111.644319 149.756955,111.646653 149.675676,111.64902 L149.675676,111.635188 C135.314203,111.236914 127.276188,111.912853 125.561632,113.663007 C125.554124,113.675962 125.54779,113.687535 125.542637,113.697625 C124.892514,114.970381 124.567457,116.923374 124.567457,119.556662 L124.567457,180.443338 C124.567457,183.076626 124.892514,185.029619 125.542637,186.302375 C125.54779,186.312465 125.554124,186.324038 125.561632,186.336993 C127.276188,188.087147 135.314203,188.763086 149.675676,188.364812 L149.675676,188.35098 C149.756955,188.353347 149.838036,188.355681 149.918919,188.35798 C149.999801,188.355681 150.080882,188.353347 150.162162,188.35098 L150.162162,188.364812 C164.523635,188.763086 172.56165,188.087147 174.276206,186.336993 C174.283714,186.324038 174.290048,186.312465 174.295201,186.302375 C174.945324,185.029619 175.270381,183.076626 175.270381,180.443338 L175.270381,119.556662 C175.270381,116.923374 174.945324,114.970381 174.295201,113.697625 C174.290048,113.687535 174.283714,113.675962 174.276206,113.663007 C172.56165,111.912853 164.523635,111.236914 150.162162,111.635188 Z M149.675676,190.976455 C135.148111,190.977414 119.714072,191.021297 103.373561,191.108103 C103.311814,191.108431 103.257398,191.093757 103.210312,191.064135 L95.3120794,191.181751 C92.1914902,191.181751 89.8727538,191.401188 88.3558007,191.84007 C86.8388476,192.278951 85.8636781,193.156701 85.4302629,194.473345 C85.3435799,194.82445 85.0835347,195 84.6501195,195 C84.2167043,195 84,194.82445 84,194.473345 C84.2600491,191.927833 84.5200943,188.065734 84.7801434,182.886934 C85.0401925,177.708133 85.1702151,173.494935 85.1702151,170.247212 C85.1702151,170.071659 85.4302603,169.983885 85.9503585,169.983885 C86.4704567,169.983885 86.7305019,170.071659 86.7305019,170.247212 C86.990551,177.093762 88.3774588,181.899441 90.8912668,184.664394 C93.4050748,187.429347 97.565798,188.811803 103.373561,188.811803 C107.274298,188.811803 110.048113,188.636253 111.695091,188.285148 C113.342069,187.934043 114.468931,187.187956 115.075712,186.046864 C115.682494,184.905772 115.98588,182.974723 115.98588,180.253658 L115.98588,119.746342 C115.98588,117.025277 115.682494,115.094228 115.075712,113.953136 C114.468931,112.812044 113.342069,112.065957 111.695091,111.714852 C110.048113,111.363747 107.274298,111.188197 103.373561,111.188197 C97.565798,111.188197 93.4050748,112.570653 90.8912668,115.335606 C88.3774588,118.100559 86.990551,122.906238 86.7305019,129.752788 C86.7305019,129.928341 86.4704567,130.016115 85.9503585,130.016115 C85.4302603,130.016115 85.1702151,129.928341 85.1702151,129.752788 C85.1702151,126.505065 85.0401925,122.291867 84.7801434,117.113066 C84.5200943,111.934266 84.2600491,108.072167 84,105.526655 C84,105.17555 84.2167043,105 84.6501195,105 C85.0835347,105 85.3435799,105.17555 85.4302629,105.526655 C85.8636781,106.843299 86.8388476,107.721049 88.3558007,108.15993 C89.8727538,108.598812 92.1914902,108.818249 95.3120794,108.818249 L103.210312,108.935865 C103.257398,108.906243 103.311814,108.891569 103.373561,108.891897 C119.714072,108.978703 135.148111,109.022586 149.675676,109.023545 C164.345039,109.023561 179.941239,108.979673 196.464277,108.891897 C196.526024,108.891569 196.58044,108.906243 196.627526,108.935865 L204.525758,108.818249 C207.646348,108.818249 209.965084,108.598812 211.482037,108.15993 C212.99899,107.721049 213.97416,106.843299 214.407575,105.526655 C214.494258,105.17555 214.754303,105 215.187718,105 C215.621134,105 215.837838,105.17555 215.837838,105.526655 C215.577789,108.072167 215.317744,111.934266 215.057694,117.113066 C214.797645,122.291867 214.667623,126.505065 214.667623,129.752788 C214.667623,129.928341 214.407578,130.016115 213.887479,130.016115 C213.367381,130.016115 213.107336,129.928341 213.107336,129.752788 C212.847287,122.906238 211.460379,118.100559 208.946571,115.335606 C206.432763,112.570653 202.27204,111.188197 196.464277,111.188197 C192.56354,111.188197 189.789724,111.363747 188.142747,111.714852 C186.495769,112.065957 185.368907,112.812044 184.762125,113.953136 C184.155344,115.094228 183.851958,117.025277 183.851958,119.746342 L183.851958,180.253658 C183.851958,182.974723 184.155344,184.905772 184.762125,186.046864 C185.368907,187.187956 186.495769,187.934043 188.142747,188.285148 C189.789724,188.636253 192.56354,188.811803 196.464277,188.811803 C202.27204,188.811803 206.432763,187.429347 208.946571,184.664394 C211.460379,181.899441 212.847287,177.093762 213.107336,170.247212 C213.107336,170.071659 213.367381,169.983885 213.887479,169.983885 C214.407578,169.983885 214.667623,170.071659 214.667623,170.247212 C214.667623,173.494935 214.797645,177.708133 215.057694,182.886934 C215.317744,188.065734 215.577789,191.927833 215.837838,194.473345 C215.837838,194.82445 215.621134,195 215.187718,195 C214.754303,195 214.494258,194.82445 214.407575,194.473345 C213.97416,193.156701 212.99899,192.278951 211.482037,191.84007 C209.965084,191.401188 207.646348,191.181751 204.525758,191.181751 L196.627526,191.064135 C196.58044,191.093757 196.526024,191.108431 196.464277,191.108103 C179.941239,191.020327 164.345039,190.976439 149.675676,190.976439 Z" id="path-1"></path>
    </defs>
    <g id="Brand/Logo-Icon" stroke="none" stroke-width="1" fill="none" fill-rule="evenodd">
        <g id="Group">
            <g id="🎨Brand-Color">
                <g id="Brand/🎨Color/White" fill="#FFFFFF">
                    <rect id="🎨Brand-Color" x="0" y="0" width="300" height="300"></rect>
                </g>
                <mask id="mask-2" fill="white">
                    <use xlink:href="#path-1"></use>
                </mask>
                <use id="Mask" fill="#414E5C" xlink:href="#path-1"></use>
                <g id="Brand/🎨Color/Black" mask="url(#mask-2)" fill="#000000">
                    <rect id="🎨Brand-Color" x="0" y="0" width="300" height="300"></rect>
                </g>
            </g>
        </g>
    </g>
</svg>