<?xml version="1.0" encoding="UTF-8"?>
<svg width="40px" height="40px" viewBox="0 0 40 40" version="1.1" xmlns="http://www.w3.org/2000/svg" xmlns:xlink="http://www.w3.org/1999/xlink">
    <!-- Generator: Sketch 53.1 (72631) - https://sketchapp.com -->
    <title>behance</title>
    <desc>Created with Sketch.</desc>
    <g id="Page-1" stroke="none" stroke-width="1" fill="none" fill-rule="evenodd">
        <g id="Desktop-HD" transform="translate(-201.000000, -974.000000)" fill="#757575">
            <path d="M201,994 C201,982.954304 209.954304,974 221,974 C232.045696,974 241,982.954304 241,994 C241,1005.0457 232.045696,1014 221,1014 C209.954304,1014 201,1005.0457 201,994 Z M223.96523,989.558237 L229.614665,989.558237 L229.614665,987.939675 L223.96523,987.939675 L223.96523,989.558237 Z M229.116702,990.916937 C228.436863,990.616241 227.672986,990.465275 226.823814,990.465275 C225.395149,990.465275 224.234908,990.911988 223.338072,991.799227 C222.443746,992.68894 221.995955,993.967208 221.995955,995.634029 C221.995955,997.410982 222.490155,998.695437 223.484827,999.483681 C224.474482,1000.27316 225.619672,1000.66667 226.917888,1000.66667 C228.489545,1000.66667 229.712502,1000.19892 230.585505,999.264656 C231.14493,998.675638 231.461017,998.095282 231.530005,997.526063 L228.927301,997.526063 C228.776783,997.808198 228.601179,998.028461 228.401743,998.18809 C228.039246,998.481361 227.566369,998.628616 226.988129,998.628616 C226.438739,998.628616 225.97088,998.507347 225.582042,998.266048 C224.939833,997.878732 224.603676,997.201856 224.56103,996.237896 L231.664216,996.237896 C231.675505,995.407579 231.64791,994.769064 231.578923,994.328538 C231.461017,993.574942 231.202628,992.911678 230.799993,992.339985 C230.358474,991.69157 229.797795,991.216396 229.116702,990.916937 Z M220.120754,988.719258 C219.449696,987.818407 218.312032,987.356845 216.704,987.333333 L210.333333,987.333333 L210.333333,1000.33875 L216.27377,1000.33875 C216.943574,1000.33875 217.563206,1000.28183 218.136428,1000.16427 C218.70965,1000.04548 219.205104,999.828925 219.6253,999.510905 C219.999086,999.23372 220.310156,998.892189 220.55851,998.487548 C220.951111,997.876257 221.146784,997.184532 221.146784,996.413612 C221.146784,995.666203 220.974943,995.030162 220.633769,994.507966 C220.288832,993.984532 219.782089,993.602166 219.109776,993.359629 C219.552549,993.136891 219.887452,992.889404 220.115737,992.619644 C220.523389,992.137046 220.725334,991.497293 220.725334,990.704099 C220.725334,989.933179 220.523389,989.27239 220.120754,988.719258 Z M212.961124,989.591647 L215.830996,989.591647 C216.461917,989.591647 216.981203,989.659706 217.39011,989.794586 C217.861733,989.990101 218.097544,990.389791 218.097544,990.99737 C218.097544,991.541841 217.918177,991.92297 217.561951,992.138283 C217.203217,992.353596 216.737866,992.461253 216.167153,992.461253 L212.961124,992.461253 L212.961124,989.591647 Z M225.303584,993.089869 C225.663573,992.723589 226.172825,992.540449 226.825069,992.540449 C227.42714,992.540449 227.93012,992.712452 228.339027,993.057695 C228.742916,993.405414 228.971202,993.910286 229.017611,994.5785 L224.623745,994.5785 C224.716565,993.952359 224.943596,993.456148 225.303584,993.089869 Z M212.961124,994.613148 L216.207291,994.613148 C216.771733,994.618097 217.211997,994.692343 217.525576,994.833411 C218.086255,995.087084 218.364713,995.551121 218.364713,996.229234 C218.364713,997.028616 218.076221,997.568136 217.497981,997.852746 C217.18064,998.00495 216.734103,998.081671 216.162136,998.081671 L212.961124,998.081671 L212.961124,994.613148 Z" id="behance"></path>
        </g>
    </g>
</svg>