<?xml version="1.0" encoding="UTF-8"?>
<svg width="230px" height="200px" viewBox="0 0 230 200" version="1.1" xmlns="http://www.w3.org/2000/svg" xmlns:xlink="http://www.w3.org/1999/xlink">
    <!-- Generator: Sketch 54.1 (76490) - https://sketchapp.com -->
    <title>Branding/Logo/Bonapp/Vertical</title>
    <desc>Created with Sketch.</desc>
    <g id="Branding/Logo/Bonapp/Vertical" stroke="none" stroke-width="1" fill="none" fill-rule="evenodd">
        <path d="M79.1624858,66.8609467 L77.6505624,74.0975422 C76.0865037,73.1032008 73.5318745,72.274583 70.7687042,72.274583 C64.8774165,72.274583 60.1331052,76.4729132 60.1331052,82.9913732 C60.1331052,89.454592 64.8252812,93.7634046 71.1336512,93.7634046 C73.8968216,93.7634046 76.3471802,93.2109927 78.0676447,92.2166513 L77.389886,99.6742115 C75.6172861,100.558071 73.2190628,101 69.830269,101 C61.2279462,101 52,94.8129871 52,82.8808908 C52,70.9487945 61.2800815,64.7065404 69.830269,64.7065404 C73.9489569,64.7065404 77.1813448,65.6456406 79.1624858,66.8609467 Z M116.601435,99.9939759 L108.506211,99.9939759 L105.720193,92.3166458 L95.0492162,92.3166458 L92.2631976,99.9939759 L84.5885051,99.9939759 L97.7826683,65.7125645 L103.407272,65.7125645 L116.601435,99.9939759 Z M104.016582,86.2814114 L101.680608,79.7516187 C101.354658,78.8108859 100.920058,77.6488041 100.648433,76.4867224 L100.539783,76.4867224 C100.268159,77.6488041 99.8878838,78.8662231 99.5619339,79.7516187 L97.2259601,86.2814114 L104.016582,86.2814114 Z M144.418399,72.9136661 L132.377433,72.9136661 L132.377433,79.6892206 L142.329099,79.6892206 L142.329099,86.6798721 L132.377433,86.6798721 L132.377433,100.392304 L124.020234,100.392304 L124.020234,66.0843373 L144.418399,66.0843373 L144.418399,72.9136661 Z M175,100.392304 L153.631746,100.392304 L153.631746,66.0843373 L173.381193,66.0843373 L173.381193,72.9136661 L161.833702,72.9136661 L161.833702,79.6892206 L171.330704,79.6892206 L171.330704,86.6798721 L161.833702,86.6798721 L161.833702,93.5629751 L175,93.5629751 L175,100.392304 Z M173.217628,54.9868952 C173.217628,55.3602572 172.895641,56.0003061 172.305332,56.5870177 C169.89043,59.0938762 167.26087,60.9606857 164.201994,62.7741579 L160.606474,61.2273728 C163.236033,59.200551 166.241245,56.1603184 168.387824,53.1200857 C168.924469,52.3733619 169.783101,52 170.212417,52 C171.178377,52 173.217628,54.0801592 173.217628,54.9868952 Z" id="CAFÉ" fill="#000000"></path>
        <path d="M58,139.476489 C58,144.413793 53.891358,147 49.9012346,147 L42,147 L42,122 L48.5975309,122 C52.0345679,122 55.5506173,124.272727 55.5506173,128.387147 C55.5506173,130.30721 54.562963,132.227273 52.982716,132.893417 C55.5901235,133.520376 58,136.224138 58,139.476489 Z M52,128.537234 C52,126.191489 50.1639344,125 47.9453552,125 L45,125 L45,132 L47.9836066,132 C50.1256831,132 52,130.882979 52,128.537234 Z M55,139.5 C55,136.560484 52.2653061,135 49.2040816,135 L45,135 L45,144 L49.3265306,144 C52.3061224,144 55,142.475806 55,139.5 Z M89,134.980333 C89,142.965204 82.6934524,148 76,148 C69.3065476,148 63,142.965204 63,134.980333 C63,127.07413 69.3065476,122 76,122 C82.6934524,122 89,127.07413 89,134.980333 Z M86,134.980732 C86,128.776493 81.0197628,125 76,125 C70.9011858,125 66,128.776493 66,134.980732 C66,141.184971 70.9011858,145 76,145 C81.0197628,145 86,141.184971 86,134.980732 Z M117,148 L116.062167,148 L104.104796,134.884615 C102.150977,132.730769 99.9236234,130.153846 98.2042629,128.115385 L98.1261101,128.153846 C98.2042629,130.384615 98.2042629,132.576923 98.2042629,134.615385 L98.2042629,147.538462 L95,147.538462 L95,123 L97.2273535,123 L108.364121,135.269231 C109.927176,137 112.193606,139.538462 113.795737,141.5 L113.87389,141.461538 C113.795737,139.423077 113.795737,137.269231 113.795737,135.346154 L113.795737,123 L117,123 L117,148 Z M145,147 L141.762411,147 L138.992908,140.353941 L128.890071,140.353941 L126.159574,147 L123,147 L133.414894,122 L134.585106,122 L145,147 Z M138,138 L135.241379,131.333333 C134.847291,130.386364 134.413793,129.136364 134.059113,128 L133.980296,128 C133.665025,129.136364 133.152709,130.386364 132.758621,131.333333 L130,138 L138,138 Z M166,128.896552 C166,133.402821 162.25,135.793103 158.617187,135.793103 L154.164062,135.793103 L154.164062,147 L151,147 L151,122 L158.578125,122 C162.25,122 166,124.390282 166,128.896552 Z M163,129.018779 C163,126.42723 160.69863,125 158.068493,125 L154,125 L154,133 L158.109589,133 C160.69863,133 163,131.647887 163,129.018779 Z M188,128.896552 C188,133.402821 184.25,135.793103 180.617188,135.793103 L176.164063,135.793103 L176.164063,147 L173,147 L173,122 L180.578125,122 C184.25,122 188,124.390282 188,128.896552 Z M185,129.018779 C185,126.42723 182.69863,125 180.068493,125 L176,125 L176,133 L180.109589,133 C182.69863,133 185,131.647887 185,129.018779 Z" id="BONAPPÉTIT" fill="#000000"></path>
    </g>
</svg>