<?xml version="1.0" encoding="UTF-8"?>
<svg width="40px" height="40px" viewBox="0 0 40 40" version="1.1" xmlns="http://www.w3.org/2000/svg" xmlns:xlink="http://www.w3.org/1999/xlink">
    <!-- Generator: Sketch 53.1 (72631) - https://sketchapp.com -->
    <title>dribble</title>
    <desc>Created with Sketch.</desc>
    <g id="Page-1" stroke="none" stroke-width="1" fill="none" fill-rule="evenodd">
        <g id="Desktop-HD" transform="translate(-237.000000, -974.000000)" fill="#757575">
            <path d="M237,994 C237,982.954304 245.954304,974 257,974 C268.045696,974 277,982.954304 277,994 C277,1005.0457 268.045696,1014 257,1014 C245.954304,1014 237,1005.0457 237,994 Z M267.666667,993.985212 C267.666667,993.263306 267.593228,992.541399 267.44898,991.840754 C267.308323,991.155242 267.099988,990.481196 266.827066,989.838875 C266.560406,989.206477 266.229659,988.596884 265.843217,988.028897 C265.462495,987.464078 265.023907,986.935614 264.542108,986.452425 C264.059306,985.971821 263.52799,985.535491 262.9639,985.153734 C262.394091,984.768309 261.784159,984.438039 261.151849,984.16968 C260.507515,983.897651 259.832995,983.689117 259.14808,983.549705 C258.444919,983.406166 257.721969,983.333333 256.999562,983.333333 C256.276611,983.333333 255.553661,983.406166 254.851545,983.549705 C254.165544,983.689076 253.491066,983.89761 252.847274,984.16968 C252.214964,984.438081 251.60449,984.768309 251.03468,985.153734 C250.47059,985.535491 249.939316,985.971821 249.457517,986.452425 C248.975216,986.935614 248.536628,987.464078 248.155363,988.028897 C247.770967,988.596884 247.439678,989.206435 247.171974,989.838875 C246.89901,990.481196 246.690174,991.155242 246.549016,991.840754 C246.40623,992.541399 246.333333,993.263306 246.333333,993.985212 C246.333333,994.706577 246.406271,995.426942 246.548974,996.129129 C246.690132,996.814599 246.898968,997.487645 247.171932,998.131008 C247.439636,998.762947 247.770925,999.371999 248.155321,999.939944 C248.536586,1000.5043 248.975174,1001.03377 249.457475,1001.51642 C249.939275,1001.99698 250.470549,1002.43439 251.034638,1002.81669 C251.604448,1003.20049 252.214923,1003.53076 252.847233,1003.79866 C253.491024,1004.07015 254.165544,1004.27818 254.851503,1004.41859 C255.55362,1004.56322 256.27657,1004.63705 256.99952,1004.63705 C257.721927,1004.63705 258.444919,1004.56322 259.148038,1004.41859 C259.832953,1004.27818 260.507515,1004.07015 261.151807,1003.79866 C261.784159,1003.53076 262.394049,1003.20049 262.963858,1002.81669 C263.527948,1002.43435 264.059222,1001.99698 264.542066,1001.51642 C265.023866,1001.03377 265.462454,1000.5043 265.843176,999.939944 C266.229659,999.371999 266.560406,998.762989 266.827066,998.131008 C267.099988,997.487645 267.308323,996.814641 267.44898,996.129129 C267.593228,995.426942 267.666667,994.706577 267.666667,993.985212 Z M258.959535,991.805942 C262.556082,990.339199 264.017096,988.231177 264.034297,988.206789 C265.312444,989.756162 266.084911,991.735194 266.105744,993.891535 C265.973938,993.864519 262.890962,993.202938 259.761644,993.59616 C259.697599,993.440155 259.631967,993.284109 259.564749,993.124936 C259.375703,992.681227 259.170959,992.239729 258.959535,991.805942 Z M262.089897,1001.52888 C261.997169,1000.9807 261.511696,998.310442 260.316841,995.031636 C263.257113,994.560912 265.805684,995.366574 265.993185,995.4269 C265.587955,997.961996 264.135292,1000.1506 262.089897,1001.52888 Z M258.61,995.452956 C259.891821,998.779582 260.421008,1001.56528 260.555903,1002.36002 C259.462627,1002.8244 258.261009,1003.08088 256.99952,1003.08088 C254.886907,1003.08088 252.947225,1002.35635 251.400758,1001.15544 C251.419748,1001.11428 253.174919,997.343703 258.549587,995.472718 C258.569419,995.465464 258.58971,995.459669 258.61,995.452956 Z M263.015462,987.158239 C262.993042,987.191508 261.695606,989.163786 258.25842,990.450512 C256.700545,987.59411 254.989488,985.327499 254.853048,985.144396 C255.541094,984.979011 256.259369,984.889544 256.99952,984.889544 C259.305896,984.889544 261.411703,985.74611 263.015462,987.158239 Z M257.250022,992.399944 C257.510962,992.91069 257.760505,993.428732 257.98913,993.94569 C257.869348,993.980001 257.748481,994.015396 257.629742,994.054918 C252.713882,995.642272 250.221006,1000.05851 250.224138,1000.06322 C248.773019,998.452397 247.890164,996.32203 247.890164,993.985212 C247.890164,993.887407 247.89484,993.792771 247.897471,993.695007 C248.05892,993.701219 252.559698,993.802109 257.250022,992.399944 Z M253.112849,985.757575 C253.234217,985.919374 254.918679,988.202078 256.4953,990.999238 C252.121652,992.159642 248.325621,992.111781 248.085473,992.109697 C248.676659,989.292776 250.572587,986.955417 253.112849,985.757575 Z" id="dribble"></path>
        </g>
    </g>
</svg>