<?xml version="1.0" encoding="UTF-8"?>
<svg width="400px" height="200px" viewBox="0 0 400 200" version="1.1" xmlns="http://www.w3.org/2000/svg" xmlns:xlink="http://www.w3.org/1999/xlink">
    <!-- Generator: Sketch 54.1 (76490) - https://sketchapp.com -->
    <title>Design/Branding/Logo</title>
    <desc>Created with Sketch.</desc>
    <defs>
        <path d="M20.9843796,55.7637842 C22.106682,52.8644723 25.7917437,45.3244132 33.7765054,45.3244132 C41.8092207,45.3244132 44.9469642,52.9550325 45.8410251,55.8155329 C46.0065578,56.3464189 45.6067894,56.8819253 45.0520936,56.8819253 L21.7548674,56.8819253 C21.178039,56.8819253 20.7759652,56.302987 20.9843796,55.7637842 M21.8309479,70.915519 C21.0387887,70.915519 20.696196,71.3198055 20.9659359,71.9648158 C22.0310626,74.513438 25.7294961,80.8216939 36.2479682,80.8216939 C45.309845,80.8216939 50.2532318,76.694275 52.7242336,75.8686064 C55.085495,75.0803632 58.4611628,73.1481047 62.610085,78.3451501 C65.9055225,82.473031 64.354864,87.5268436 61.7865715,89.9026622 C51.0767454,99.808375 37.0719429,98.9831685 32.5504569,98.9831685 C28.029432,98.9831685 0,96.5066248 0,63.7612647 C0,37.0695755 23.0671404,28.8142758 33.7765054,28.8142758 C42.8383821,28.8142758 51.0767454,32.1164881 57.6671593,40.3717878 C66.0452339,50.8647557 65.0815479,60.1836755 65.0815479,65.136763 C65.0815479,68.4389753 60.9625968,70.915519 56.8436457,70.915519 L21.8309479,70.915519 Z M81.9935785,97.6852237 L81.4824033,97.6852237 C76.3164004,97.6852237 72.1287859,93.5713007 72.1287859,88.4962066 L72.1287859,9.18901701 C72.1287859,4.11392291 76.3164004,0 81.4824033,0 L81.9935785,0 C87.1595814,0 91.3471959,4.11392291 91.3471959,9.18901701 L91.3471959,88.4962066 C91.3471959,93.5713007 87.1595814,97.6852237 81.9935785,97.6852237 Z M130.015144,30.0996751 C130.015144,30.0996751 129.559455,47.6578578 119.989985,55.9748917 C110.908102,63.8677569 101.306733,61.0575236 97.205532,61.0575236 C100.851044,55.0507768 116.666644,41.2468108 116.666644,41.2468108 C116.666644,41.2468108 100.851044,54.5887194 94.4713977,57.361064 C94.9270867,50.4302024 98.1984785,41.2629828 102.673801,36.1064218 C112.69896,24.5549858 130.015144,30.0996751 130.015144,30.0996751 Z M130.015144,96.7332724 C130.015144,96.7332724 112.69896,102.277962 102.673801,90.7265257 C98.1984785,85.5699647 94.9270867,76.4027451 94.4713977,69.4718835 C100.851044,72.2442281 116.666644,85.5861367 116.666644,85.5861367 C116.666644,85.5861367 100.851044,71.7821707 97.205532,65.7754239 C101.306733,65.7754239 110.908102,62.9651906 119.989985,70.8580558 C129.559455,79.1750897 130.015144,96.7332724 130.015144,96.7332724 Z M185.809952,30.1588924 C191.802651,30.1588924 195.490466,35.2345701 195.490466,38.4645469 L195.490466,88.7598991 C195.490466,88.7598991 194.107535,97.5269788 186.270929,97.5269788 C178.434322,97.5269788 176.590414,91.5284505 176.590414,91.5284505 C176.590414,91.5284505 172.441622,98.9998482 160.225735,98.9998482 C148.009848,98.9998482 129.380851,87.8282815 130.031751,63.3815103 C130.3383,51.8606447 138.329334,28.7746167 160.456224,28.7746167 C160.456224,28.7746167 170.597715,28.3131914 176.590414,36.1574206 C176.590414,36.1574206 179.817252,30.1588924 185.809952,30.1588924 Z M162.761108,80.4542446 C164.605016,80.4542446 176.129437,79.5313941 176.129437,63.3815103 C176.129437,47.2316266 162.761108,47.6930519 162.761108,47.6930519 C162.761108,47.6930519 149.392779,47.6930519 149.392779,63.8429356 C149.392779,79.0699688 160.917201,80.4542446 162.761108,80.4542446 Z M203.908722,37.9536527 C203.908722,33.825277 209.856402,30.1556096 213.516513,30.1556096 C220.836736,30.1556096 223.124305,36.5775275 223.124305,36.5775275 C224.039333,33.3665685 232.512033,28.5203141 236.392208,28.7794843 C243.254917,29.2381928 246,33.825277 246,40.7059033 C246,46.0576544 237.76475,48.045238 230.902041,50.3387801 C224.039333,52.6323222 222.666791,59.0542401 222.666791,59.0542401 L222.666791,89.3289959 C222.666791,91.1638295 220.379222,97.127039 213.058999,97.127039 C205.738777,97.127039 203.908722,89.7877043 203.908722,89.7877043 L203.908722,37.9536527 Z" id="path-1"></path>
    </defs>
    <g id="Design/Branding/Logo" stroke="none" stroke-width="1" fill="none" fill-rule="evenodd">
        <g id="Group" transform="translate(77.000000, 49.000000)">
            <g id="Design/Branding/Color/Brand-1/1">
                <mask id="mask-2" fill="white">
                    <use xlink:href="#path-1"></use>
                </mask>
                <use id="Mask" fill="#2DBA7D" xlink:href="#path-1"></use>
                <g mask="url(#mask-2)" fill="#2DBA4C" id="🎨Brand-Color">
                    <g transform="translate(-61.000000, -5.000000)">
                        <rect x="0" y="0" width="369" height="111"></rect>
                    </g>
                </g>
            </g>
        </g>
    </g>
</svg>