<?xml version="1.0" encoding="UTF-8"?>
<svg width="40px" height="40px" viewBox="0 0 40 40" version="1.1" xmlns="http://www.w3.org/2000/svg" xmlns:xlink="http://www.w3.org/1999/xlink">
    <!-- Generator: Sketch 53.1 (72631) - https://sketchapp.com -->
    <title>linkedin</title>
    <desc>Created with Sketch.</desc>
    <g id="Page-1" stroke="none" stroke-width="1" fill="none" fill-rule="evenodd">
        <g id="Desktop-HD" transform="translate(-129.000000, -974.000000)" fill="#757575">
            <path d="M129,994 C129,982.954304 137.954304,974 149,974 C160.045696,974 169,982.954304 169,994 C169,1005.0457 160.045696,1014 149,1014 C137.954304,1014 129,1005.0457 129,994 Z M143.133785,990.564874 L138.601348,990.564874 L138.601348,1004.18297 L143.133785,1004.18297 L143.133785,990.564874 Z M143.432303,986.352248 C143.402885,985.017003 142.448045,984 140.897527,984 C139.347008,984 138.333333,985.017003 138.333333,986.352248 C138.333333,987.659836 139.317048,988.706123 140.838692,988.706123 L140.867657,988.706123 C142.448045,988.706123 143.432303,987.659836 143.432303,986.352248 Z M159.479488,996.374768 C159.479488,992.191879 157.243501,990.245094 154.260949,990.245094 C151.854522,990.245094 150.777125,991.566873 150.175564,992.494124 L150.175564,990.565235 L145.642583,990.565235 C145.702323,991.843087 145.642583,1004.18333 145.642583,1004.18333 L150.175564,1004.18333 L150.175564,996.577861 C150.175564,996.170861 150.204981,995.764856 150.324823,995.473457 C150.652396,994.660361 151.398237,993.818523 152.650419,993.818523 C154.291181,993.818523 154.947051,995.067271 154.947051,996.897279 L154.947051,1004.18297 L159.479307,1004.18297 L159.479488,996.374768 Z" id="linkedin"></path>
        </g>
    </g>
</svg>