<?xml version="1.0" encoding="UTF-8"?>
<svg width="40px" height="40px" viewBox="0 0 40 40" version="1.1" xmlns="http://www.w3.org/2000/svg" xmlns:xlink="http://www.w3.org/1999/xlink">
    <!-- Generator: Sketch 53.1 (72631) - https://sketchapp.com -->
    <title>mail</title>
    <desc>Created with Sketch.</desc>
    <g id="Page-1" stroke="none" stroke-width="1" fill="none" fill-rule="evenodd">
        <g id="Desktop-HD" transform="translate(-93.000000, -974.000000)" fill="#757575">
            <path d="M109.673667,998.067833 L109.333333,1003.16667 C109.833333,1003.16667 110.05425,1002.938 110.333333,1002.66667 L112.735592,1000.33077 L117.733333,1004.02317 C118.653083,1004.53065 119.3169,1004.2679 119.546,1003.16925 L122.826833,987.70875 C123.162733,986.36205 122.313483,985.75125 121.4336,986.150717 L102.1686,993.579217 C100.853583,994.106667 100.86125,994.840317 101.9289,995.167217 L106.872733,996.710267 L118.318233,989.489433 C118.85855,989.161783 119.35445,989.337935 118.947433,989.699167 L109.673799,998.067913 Z M113,1014 C101.954305,1014 93,1005.04569 93,994 C93,982.954305 101.954305,974 113,974 C124.045695,974 133,982.954305 133,994 C133,1005.04569 124.045695,1014 113,1014 Z" id="mail"></path>
        </g>
    </g>
</svg>