<?xml version="1.0" encoding="UTF-8"?>
<svg width="40px" height="40px" viewBox="0 0 40 40" version="1.1" xmlns="http://www.w3.org/2000/svg" xmlns:xlink="http://www.w3.org/1999/xlink">
    <!-- Generator: Sketch 53.1 (72631) - https://sketchapp.com -->
    <title>github</title>
    <desc>Created with Sketch.</desc>
    <g id="Page-1" stroke="none" stroke-width="1" fill="none" fill-rule="evenodd">
        <g id="Desktop-HD" transform="translate(-165.000000, -974.000000)" fill="#757575">
            <path d="M185.000166,974 C196.045498,974 205,983.180528 205,994.506179 C205,1003.56344 199.27663,1011.24744 191.334258,1013.96204 C190.320472,1014.16341 189.960464,1013.52398 189.960464,1012.97828 C189.960464,1012.30251 189.983647,1010.09423 189.983647,1007.35077 C189.983647,1005.43758 189.344442,1004.18962 188.627075,1003.55325 C193.080646,1003.04558 197.759429,1001.31135 197.759429,993.435146 C197.759429,991.196299 196.98344,989.366985 195.701056,987.930904 C195.908715,987.414064 196.593625,985.328707 195.504989,982.504086 C195.504989,982.504086 193.82782,981.952949 190.010474,984.606082 C188.41213,984.151725 186.699855,983.923867 185.000166,983.916057 C183.300476,983.923867 181.589526,984.151725 179.994163,984.606082 C176.17218,981.952949 174.492693,982.504086 174.492693,982.504086 C173.406707,985.328707 174.091285,987.414064 174.298944,987.930904 C173.01954,989.366985 172.238253,991.196299 172.238253,993.435146 C172.238253,1001.29267 176.908094,1003.05101 181.350404,1003.56955 C180.778431,1004.0813 180.260112,1004.98662 180.080604,1006.31166 C178.939309,1006.83563 176.044339,1007.74196 174.260526,1004.60697 C174.260526,1004.60697 173.203022,1002.63809 171.194659,1002.49376 C171.194659,1002.49376 169.243262,1002.46762 171.057876,1003.74036 C171.057876,1003.74036 172.368744,1004.37062 173.278534,1006.74088 C173.278534,1006.74088 174.452619,1010.40087 180.016684,1009.16039 C180.025295,1010.8739 180.043842,1012.48928 180.043842,1012.97828 C180.043842,1013.51991 179.676878,1014.15458 178.677334,1013.96476 C170.730656,1011.25321 165,1003.5665 165,994.506179 C165,983.180528 173.955827,974 185.000166,974 Z M172.575078,1003.44255 C172.531029,1003.54476 172.374705,1003.57499 172.232291,1003.50503 C172.087228,1003.43813 172.005755,1003.29925 172.052784,1003.19703 C172.095839,1003.0921 172.252494,1003.06324 172.397226,1003.13285 C172.542621,1003.20009 172.625419,1003.34034 172.575078,1003.44255 Z M173.385179,1004.36892 C173.289795,1004.45959 173.103333,1004.41748 172.976816,1004.27418 C172.845995,1004.13122 172.821486,1003.94003 172.918195,1003.84801 C173.01656,1003.75734 173.197392,1003.79979 173.328545,1003.94275 C173.459367,1004.08741 173.484869,1004.27724 173.385179,1004.36892 Z M174.173753,1005.54998 C174.051211,1005.63725 173.850838,1005.55541 173.726972,1005.37306 C173.60443,1005.1907 173.60443,1004.97201 173.729621,1004.8844 C173.853819,1004.79679 174.051211,1004.87557 174.176734,1005.05657 C174.298944,1005.24164 174.298944,1005.46067 174.173753,1005.54998 Z M175.254109,1006.69097 C175.144484,1006.81491 174.910992,1006.78163 174.740095,1006.61252 C174.565225,1006.44715 174.516539,1006.2125 174.626496,1006.08855 C174.737446,1005.96427 174.972262,1005.99924 175.144484,1006.16699 C175.318029,1006.33203 175.37102,1006.56838 175.254109,1006.69097 Z M176.744484,1007.35348 C176.696129,1007.51411 176.471248,1007.58712 176.244711,1007.51886 C176.018505,1007.44857 175.870462,1007.26044 175.916166,1007.09812 C175.963196,1006.93648 176.189071,1006.86042 176.417264,1006.93343 C176.643138,1007.00338 176.791513,1007.19015 176.744484,1007.35348 Z M178.381246,1007.47641 C178.386876,1007.64552 178.194784,1007.78577 177.956986,1007.78849 C177.717864,1007.79426 177.524446,1007.65741 177.521797,1007.49101 C177.521797,1007.32021 177.709584,1007.18132 177.948706,1007.17724 C178.186504,1007.17249 178.381246,1007.30832 178.381246,1007.47641 Z M179.904409,1007.21052 C179.932892,1007.37556 179.767626,1007.54501 179.531484,1007.58983 C179.299317,1007.63364 179.084372,1007.53176 179.054895,1007.36809 C179.026082,1007.19898 179.194328,1007.02953 179.426164,1006.98572 C179.662637,1006.94361 179.87427,1007.04277 179.904409,1007.21052 Z" id="github"></path>
        </g>
    </g>
</svg>