<svg xmlns="http://www.w3.org/2000/svg" xmlns:xlink="http://www.w3.org/1999/xlink" version="1.1" id="Layer_1" x="0px" y="0px" viewBox="0 0 162 162" style="enable-background:new 0 0 162 162;" xml:space="preserve">
<style type="text/css">
	.st0{fill:#EC008C;}
	.st1{fill:none;}
</style>
<g>
	<path d="M41.9,38.1v18.1h-4.1V38.1h-4v-3.6h12v3.6H41.9z"/>
	<path d="M53,56.7c-3.8,0-6.2-2.5-6.2-5.9V40c0-3.4,2.4-5.9,6.2-5.9c3.8,0,6.2,2.5,6.2,5.9v10.8C59.2,54.3,56.8,56.7,53,56.7z    M55.1,39.7c0-1.3-0.7-2.1-2.1-2.1c-1.3,0-2,0.8-2,2.1v11.3c0,1.3,0.7,2.1,2,2.1c1.3,0,2.1-0.8,2.1-2.1V39.7z"/>
	<path d="M71.4,56.4c-1.6,0-2.2-1.3-2.2-3.2v-4.1c0-1-0.5-1.9-1.7-1.9h-2.1v9h-4V34.6h6.7c3,0,4.9,1.7,4.9,4.7v3.1   c0,1.6-0.7,2.8-2.4,3.4c1.7,0.5,2.5,1.9,2.5,3.3v4c0,1,0.3,1.7,0.8,2.2v1.2H71.4z M69.1,39.4c0-1-0.4-1.6-1.4-1.6h-2.2v6.4h2.1   c1,0,1.6-0.6,1.6-1.7V39.4z"/>
	<path d="M81.3,56.7c-3.8,0-6.2-2.5-6.2-5.9V40c0-3.4,2.4-5.9,6.2-5.9c3.8,0,6.2,2.5,6.2,5.9v10.8C87.5,54.3,85.1,56.7,81.3,56.7z    M83.4,39.7c0-1.3-0.7-2.1-2.1-2.1c-1.3,0-2.1,0.8-2.1,2.1v11.3c0,1.3,0.8,2.1,2.1,2.1c1.3,0,2.1-0.8,2.1-2.1V39.7z"/>
	<path d="M99.1,56.2L94.9,47l-1.5-3.4v12.7h-3.7V34.6h3.5l4,9.4l1.4,3.5V34.6h3.6v21.7H99.1z"/>
	<path d="M111.7,38.1v18.1h-4.1V38.1h-4v-3.6h12v3.6H111.7z"/>
	<path d="M122.8,56.7c-3.8,0-6.2-2.5-6.2-5.9V40c0-3.4,2.4-5.9,6.2-5.9c3.8,0,6.2,2.5,6.2,5.9v10.8C129,54.3,126.6,56.7,122.8,56.7z    M124.9,39.7c0-1.3-0.7-2.1-2.1-2.1c-1.3,0-2,0.8-2,2.1v11.3c0,1.3,0.7,2.1,2,2.1c1.3,0,2.1-0.8,2.1-2.1V39.7z"/>
	<path d="M40.3,80.7c-3.7,0-6-2.2-6-5.6v-1.5H38v1.3c0,1.6,0.7,2.5,2.2,2.5c1.4,0,2.2-0.8,2.2-2.2c0-1.7-1.1-2.9-3.3-4.5   c-2.2-1.6-4.6-3.7-4.6-6.8c0-3.1,2-5.8,5.9-5.8c3.4,0,5.7,2.3,5.7,5.6V65h-3.7v-1.3c0-1.3-0.7-2.3-2.1-2.3c-1.2,0-2,0.8-2,2   c0,1.8,1.1,2.8,3.5,4.5c2.6,1.9,4.4,3.9,4.4,6.8C46.3,78.2,43.9,80.7,40.3,80.7z"/>
	<path d="M54.2,80.7c-3.9,0-6.3-2.6-6.3-6V64c0-3.4,2.4-6,6.3-6c3.8,0,5.9,2.4,5.9,5.7v2.6h-3.6v-2.6c0-1.3-0.7-2.1-2.2-2.1   c-1.5,0-2.2,0.9-2.2,2.1v11.4c0,1.2,0.8,2.1,2.2,2.1c1.5,0,2.2-0.9,2.2-2.1v-2.6h3.6V75C60.1,78.3,58.1,80.7,54.2,80.7z"/>
	<path d="M70.6,80.2v-8.9h-4.5v8.9h-4V58.5h4v9.2h4.5v-9.2h4.1v21.7H70.6z"/>
	<path d="M83,80.7c-3.8,0-6.2-2.5-6.2-5.9V64c0-3.4,2.4-5.9,6.2-5.9c3.8,0,6.2,2.5,6.2,5.9v10.8C89.2,78.2,86.9,80.7,83,80.7z    M85.1,63.7c0-1.3-0.7-2.1-2.1-2.1c-1.3,0-2.1,0.8-2.1,2.1V75c0,1.3,0.8,2.1,2.1,2.1c1.3,0,2.1-0.8,2.1-2.1V63.7z"/>
	<path d="M97.4,80.7c-3.8,0-6.2-2.5-6.2-5.9V64c0-3.4,2.4-5.9,6.2-5.9c3.8,0,6.2,2.5,6.2,5.9v10.8C103.5,78.2,101.2,80.7,97.4,80.7z    M99.5,63.7c0-1.3-0.7-2.1-2.1-2.1c-1.3,0-2,0.8-2,2.1V75c0,1.3,0.7,2.1,2,2.1c1.3,0,2.1-0.8,2.1-2.1V63.7z"/>
	<path d="M105.8,80.2V58.5h4v18.1h6.1v3.6H105.8z"/>
	<path d="M40.9,104.7c-3.8,0-6.2-2.5-6.2-5.9V88c0-3.4,2.4-5.9,6.2-5.9c3.8,0,6.2,2.5,6.2,5.9v10.8C47,102.2,44.7,104.7,40.9,104.7z    M43,87.7c0-1.3-0.7-2.1-2.1-2.1c-1.3,0-2.1,0.8-2.1,2.1V99c0,1.3,0.8,2.1,2.1,2.1c1.3,0,2.1-0.8,2.1-2.1V87.7z"/>
	<path d="M53.3,85.9v5.7h4.5V95h-4.5v9.2h-4V82.5h10.1v3.4H53.3z"/>
	<path class="st0" d="M42.8,128.2l-0.7-4.3h-3.8l-0.8,4.3h-3.8l4.4-21.7h4.5l4.3,21.7H42.8z M40.2,112.4l-1.5,8.4h2.8L40.2,112.4z"/>
	<path class="st0" d="M58.1,128.3c-1.6,0-2.2-1.3-2.2-3.2v-4.1c0-1-0.5-1.9-1.7-1.9h-2.1v9h-4v-21.7h6.7c3,0,5,1.7,5,4.7v3.1   c0,1.6-0.8,2.8-2.4,3.4c1.7,0.5,2.5,1.9,2.5,3.3v4c0,1,0.3,1.7,0.8,2.2v1.2H58.1z M55.8,111.4c0-1-0.4-1.6-1.4-1.6h-2.2v6.4h2.1   c1,0,1.6-0.5,1.6-1.7V111.4z"/>
	<path class="st0" d="M68.8,110.1v18.1h-4.1v-18.1h-4v-3.6h12v3.6H68.8z"/>
</g>
<rect x="24.6" y="25.4" class="st1" width="113.4" height="111.8"/>
</svg>