<?xml version="1.0" encoding="UTF-8"?>
<svg width="230px" height="200px" viewBox="0 0 230 200" version="1.1" xmlns="http://www.w3.org/2000/svg" xmlns:xlink="http://www.w3.org/1999/xlink">
    <!-- Generator: Sketch 53.2 (72643) - https://sketchapp.com -->
    <title>brand/logo/v-colored-full</title>
    <desc>Created with Sketch.</desc>
    <defs>
        <linearGradient x1="61.2375818%" y1="4.14195855%" x2="36.6400751%" y2="104.329694%" id="linearGradient-1">
            <stop stop-color="#912329" offset="0%"></stop>
            <stop stop-color="#EB8D30" offset="100%"></stop>
        </linearGradient>
        <linearGradient x1="61.3979781%" y1="95.8428009%" x2="36.5330502%" y2="-4.3449346%" id="linearGradient-2">
            <stop stop-color="#912329" offset="0%"></stop>
            <stop stop-color="#EB8D30" offset="100%"></stop>
        </linearGradient>
    </defs>
    <g id="brand/logo/v-colored-full" stroke="none" stroke-width="1" fill="none" fill-rule="evenodd">
        <path d="M48.2762931,117.336943 L54.4263672,117.336943 L59.6690534,144.629362 L54.5607951,144.629362 L53.5525862,138.631769 L49.250895,138.631769 L48.2090792,144.629362 L43,144.629362 L48.2762931,117.336943 Z M53.0148748,135.194946 L51.3681336,124.21059 L49.7549994,135.194946 L53.0148748,135.194946 Z M78.2441736,145 C75.3539604,145 73.3039562,144.219422 72.0940995,142.658243 C70.8842428,141.097064 70.2793235,138.845181 70.2793235,135.902527 L70.2793235,126.131167 C70.2793235,123.121124 70.8786417,120.846779 72.077296,119.308063 C73.2759503,117.769346 75.3315556,117 78.2441736,117 C81.0223631,117 82.9883507,117.679496 84.1421955,119.038508 C85.2960403,120.39752 85.8729541,122.346157 85.8729541,124.884477 L85.8729541,127.175692 L80.4958401,127.175692 L80.4958401,124.648616 C80.4958401,123.839948 80.4566324,123.18853 80.3782157,122.694344 C80.2997991,122.200158 80.0981593,121.790214 79.7732904,121.464501 C79.4484215,121.138787 78.9499232,120.975933 78.2777806,120.975933 C77.2695667,120.975933 76.6198386,121.301641 76.3285768,121.953069 C76.037315,122.604496 75.8916862,123.559159 75.8916862,124.817088 L75.8916862,137.216606 C75.8916862,138.496998 76.0597194,139.451662 76.3957907,140.080626 C76.731862,140.70959 77.3591857,141.024067 78.2777806,141.024067 C79.2187802,141.024067 79.8236995,140.703974 80.0925565,140.063779 C80.3614136,139.423583 80.4958401,138.474535 80.4958401,137.216606 L80.4958401,134.554753 L85.8729541,134.554753 L85.8729541,136.812274 C85.8729541,139.417983 85.3016414,141.434008 84.158999,142.860409 C83.0163566,144.28681 81.0447678,145 78.2441736,145 Z M105.456283,145 C102.56607,145 100.516066,144.219422 99.3062091,142.658243 C98.0963524,141.097064 97.4914331,138.845181 97.4914331,135.902527 L97.4914331,126.131167 C97.4914331,123.121124 98.0907513,120.846779 99.2894056,119.308063 C100.48806,117.769346 102.543665,117 105.456283,117 C108.234473,117 110.20046,117.679496 111.354305,119.038508 C112.50815,120.39752 113.085064,122.346157 113.085064,124.884477 L113.085064,127.175692 L107.70795,127.175692 L107.70795,124.648616 C107.70795,123.839948 107.668742,123.18853 107.590325,122.694344 C107.511909,122.200158 107.310269,121.790214 106.9854,121.464501 C106.660531,121.138787 106.162033,120.975933 105.48989,120.975933 C104.481676,120.975933 103.831948,121.301641 103.540686,121.953069 C103.249425,122.604496 103.103796,123.559159 103.103796,124.817088 L103.103796,137.216606 C103.103796,138.496998 103.271829,139.451662 103.6079,140.080626 C103.943972,140.70959 104.571295,141.024067 105.48989,141.024067 C106.43089,141.024067 107.035809,140.703974 107.304666,140.063779 C107.573523,139.423583 107.70795,138.474535 107.70795,137.216606 L107.70795,134.554753 L113.085064,134.554753 L113.085064,136.812274 C113.085064,139.417983 112.513751,141.434008 111.371109,142.860409 C110.228466,144.28681 108.256877,145 105.456283,145 Z M125.106826,117.336943 L136.970084,117.336943 L136.970084,121.178099 L130.618368,121.178099 L130.618368,128.422383 L135.524985,128.422383 L135.524985,132.297232 L130.618368,132.297232 L130.618368,140.855596 L137.037298,140.855596 L137.037298,144.629362 L125.106826,144.629362 L125.106826,117.336943 Z M148.487742,117.336943 L152.352543,117.336943 L158.401796,131.522262 L158.401796,117.336943 L163.00595,117.336943 L163.00595,144.629362 L159.275577,144.629362 L153.226324,129.534296 L153.226324,144.629362 L148.487742,144.629362 L148.487742,117.336943 Z M178.287588,121.447653 L174.086718,121.447653 L174.086718,117.336943 L188,117.336943 L188,121.447653 L183.866344,121.447653 L183.866344,144.629362 L178.287588,144.629362 L178.287588,121.447653 Z" id="ACCENT" fill="#912329"></path>
        <path d="M45.4420378,155.588448 L44,155.588448 L44,154.120337 L48.7760291,154.120337 L48.7760291,155.588448 L47.3570639,155.588448 L47.3570639,163.867629 L45.4420378,163.867629 L45.4420378,155.588448 Z M53.4469517,154.120337 L55.8695752,154.120337 C56.8770839,154.120337 57.6346268,154.312874 58.1422267,154.697954 C58.6498265,155.083034 58.9036226,155.748892 58.9036226,156.695548 C58.9036226,157.329325 58.8190239,157.840752 58.649824,158.229844 C58.480624,158.618935 58.1806832,158.913758 57.7499924,159.11432 L59.0420582,163.867629 L57.0924232,163.867629 L56.0310834,159.451264 L55.3389053,159.451264 L55.3389053,163.867629 L53.4469517,163.867629 L53.4469517,154.120337 Z M55.9041841,158.271961 C56.3502566,158.271961 56.6636564,158.157643 56.8443927,157.929001 C57.025129,157.70036 57.1154958,157.341358 57.1154958,156.851986 C57.1154958,156.370635 57.0347425,156.017651 56.8732334,155.79302 C56.7117244,155.56839 56.4194743,155.456077 55.9964745,155.456077 L55.3389053,155.456077 L55.3389053,158.271961 L55.9041841,158.271961 Z M65.3511358,154.120337 L67.4622791,154.120337 L69.2619422,163.867629 L67.5084243,163.867629 L67.1623352,161.725632 L65.6856886,161.725632 L65.3280632,163.867629 L63.5399364,163.867629 L65.3511358,154.120337 Z M66.9777544,160.498195 L66.4124756,156.575211 L65.8587331,160.498195 L66.9777544,160.498195 Z M74.0366916,154.120337 L75.3633663,154.120337 L77.4399007,159.186522 L77.4399007,154.120337 L79.0203741,154.120337 L79.0203741,163.867629 L77.7398445,163.867629 L75.6633102,158.476534 L75.6633102,163.867629 L74.0366916,163.867629 L74.0366916,154.120337 Z M86.6676627,164 C85.8062811,164 85.1602547,163.753312 84.7295639,163.259928 C84.2988732,162.766544 84.064304,162.002412 84.0258495,160.967509 L85.6640044,160.6787 C85.6793862,161.296433 85.7620622,161.751703 85.9120349,162.044525 C86.0620076,162.337346 86.2869632,162.483755 86.5869086,162.483755 C86.8099449,162.483755 86.9714515,162.409547 87.0714332,162.261131 C87.171415,162.112715 87.2214052,161.922183 87.2214052,161.689531 C87.2214052,161.304451 87.1387292,160.977538 86.9733747,160.708785 C86.8080202,160.440031 86.548456,160.145208 86.1946743,159.824308 L85.2256249,158.945848 C84.8410796,158.608903 84.5469068,158.247896 84.3430978,157.862816 C84.1392888,157.477736 84.0373858,157.016449 84.0373858,156.478941 C84.0373858,155.684713 84.2623414,155.073007 84.7122595,154.643803 C85.1621775,154.214599 85.7832089,154 86.5753723,154 C87.421372,154 88.0097175,154.254711 88.3404265,154.76414 C88.6711355,155.273569 88.8595598,155.921376 88.9057053,156.707581 L87.2560141,156.960289 C87.2406323,156.446849 87.184874,156.067791 87.0887377,155.823105 C86.9926014,155.578418 86.8022543,155.456077 86.5176908,155.456077 C86.3100363,155.456077 86.1485297,155.538306 86.0331661,155.702768 C85.9178025,155.867229 85.8601215,156.061772 85.8601215,156.286402 C85.8601215,156.607302 85.927416,156.878057 86.0620068,157.098676 C86.1965977,157.319295 86.4100171,157.561972 86.7022716,157.826715 L87.6482484,158.693141 C88.0943209,159.102288 88.4442519,159.533492 88.6980518,159.986763 C88.9518518,160.440034 89.0787498,160.971517 89.0787498,161.581227 C89.0787498,162.046533 88.9787695,162.461691 88.778806,162.826715 C88.5788424,163.191739 88.2962058,163.478539 87.9308878,163.687124 C87.5655697,163.895709 87.1444989,164 86.6676627,164 Z M93.9111807,154.120337 L95.8031342,154.120337 L95.8031342,162.519856 L98.0065679,162.519856 L98.0065679,163.867629 L93.9111807,163.867629 L93.9111807,154.120337 Z M104.084919,154.120337 L106.196063,154.120337 L107.995726,163.867629 L106.242208,163.867629 L105.896119,161.725632 L104.419472,161.725632 L104.061847,163.867629 L102.27372,163.867629 L104.084919,154.120337 Z M105.711538,160.498195 L105.146259,156.575211 L104.592517,160.498195 L105.711538,160.498195 Z M113.174246,155.588448 L111.732208,155.588448 L111.732208,154.120337 L116.508237,154.120337 L116.508237,155.588448 L115.089272,155.588448 L115.089272,163.867629 L113.174246,163.867629 L113.174246,155.588448 Z M121.202232,154.120337 L123.094186,154.120337 L123.094186,163.867629 L121.202232,163.867629 L121.202232,154.120337 Z M130.960664,164 C129.968537,164 129.260985,163.729245 128.837985,163.187726 C128.414985,162.646207 128.203488,161.849985 128.203488,160.799037 L128.203488,157.164862 C128.203488,156.113914 128.414985,155.323709 128.837985,154.794224 C129.260985,154.264739 129.968537,154 130.960664,154 C131.9451,154 132.65073,154.266744 133.077576,154.800241 C133.504421,155.333737 133.71784,156.121936 133.71784,157.164862 L133.71784,160.811071 C133.71784,161.853996 133.504421,162.646207 133.077576,163.187726 C132.65073,163.729245 131.9451,164 130.960664,164 Z M130.960664,162.580024 C131.283682,162.580024 131.500947,162.465705 131.612465,162.237064 C131.723983,162.008422 131.779742,161.693544 131.779742,161.292419 L131.779742,156.683514 C131.779742,156.282389 131.723983,155.971521 131.612465,155.750903 C131.500947,155.530284 131.283682,155.419976 130.960664,155.419976 C130.637646,155.419976 130.420381,155.530284 130.308863,155.750903 C130.197345,155.971521 130.141587,156.282389 130.141587,156.683514 L130.141587,161.292419 C130.141587,161.701566 130.195422,162.018451 130.303095,162.243081 C130.410768,162.467711 130.629955,162.580024 130.960664,162.580024 Z M138.815606,154.120337 L140.142281,154.120337 L142.218815,159.186522 L142.218815,154.120337 L143.799289,154.120337 L143.799289,163.867629 L142.518759,163.867629 L140.442225,158.476534 L140.442225,163.867629 L138.815606,163.867629 L138.815606,154.120337 Z M151.446577,164 C150.585196,164 149.939169,163.753312 149.508479,163.259928 C149.077788,162.766544 148.843219,162.002412 148.804764,160.967509 L150.442919,160.6787 C150.458301,161.296433 150.540977,161.751703 150.69095,162.044525 C150.840922,162.337346 151.065878,162.483755 151.365823,162.483755 C151.58886,162.483755 151.750366,162.409547 151.850348,162.261131 C151.95033,162.112715 152.00032,161.922183 152.00032,161.689531 C152.00032,161.304451 151.917644,160.977538 151.752289,160.708785 C151.586935,160.440031 151.327371,160.145208 150.973589,159.824308 L150.00454,158.945848 C149.619994,158.608903 149.325822,158.247896 149.122013,157.862816 C148.918204,157.477736 148.816301,157.016449 148.816301,156.478941 C148.816301,155.684713 149.041256,155.073007 149.491174,154.643803 C149.941092,154.214599 150.562124,154 151.354287,154 C152.200287,154 152.788632,154.254711 153.119341,154.76414 C153.45005,155.273569 153.638475,155.921376 153.68462,156.707581 L152.034929,156.960289 C152.019547,156.446849 151.963789,156.067791 151.867652,155.823105 C151.771516,155.578418 151.581169,155.456077 151.296605,155.456077 C151.088951,155.456077 150.927444,155.538306 150.812081,155.702768 C150.696717,155.867229 150.639036,156.061772 150.639036,156.286402 C150.639036,156.607302 150.706331,156.878057 150.840922,157.098676 C150.975512,157.319295 151.188932,157.561972 151.481186,157.826715 L152.427163,158.693141 C152.873236,159.102288 153.223167,159.533492 153.476967,159.986763 C153.730766,160.440034 153.857665,160.971517 153.857665,161.581227 C153.857665,162.046533 153.757684,162.461691 153.557721,162.826715 C153.357757,163.191739 153.075121,163.478539 152.709802,163.687124 C152.344484,163.895709 151.923414,164 151.446577,164 Z M165.426016,154.120337 L167.31797,154.120337 L167.31797,163.867629 L165.426016,163.867629 L165.426016,154.120337 Z M172.565708,154.120337 L173.892382,154.120337 L175.968917,159.186522 L175.968917,154.120337 L177.54939,154.120337 L177.54939,163.867629 L176.26886,163.867629 L174.192326,158.476534 L174.192326,163.867629 L172.565708,163.867629 L172.565708,154.120337 Z M185.381259,164 C184.389132,164 183.685425,163.721222 183.270116,163.163658 C182.854807,162.606094 182.647156,161.80185 182.647156,160.750903 L182.647156,157.261131 C182.647156,156.186116 182.852885,155.37385 183.264348,154.824308 C183.675811,154.274767 184.381442,154 185.381259,154 C186.334932,154 187.009799,154.242677 187.40588,154.728039 C187.801962,155.2134 188,155.909342 188,156.815884 L188,157.634176 L186.154192,157.634176 L186.154192,156.731649 C186.154192,156.442839 186.140733,156.210189 186.113815,156.033694 C186.086896,155.857199 186.017679,155.710791 185.906161,155.594465 C185.794643,155.478138 185.623523,155.419976 185.392796,155.419976 C185.046705,155.419976 184.823672,155.5363 184.72369,155.768953 C184.623708,156.001606 184.573718,156.342557 184.573718,156.791817 L184.573718,161.220217 C184.573718,161.677499 184.631399,162.018451 184.746763,162.243081 C184.862126,162.467711 185.077469,162.580024 185.392796,162.580024 C185.715814,162.580024 185.923465,162.465705 186.015756,162.237064 C186.108047,162.008422 186.154192,161.669477 186.154192,161.220217 L186.154192,160.269555 L188,160.269555 L188,161.075812 C188,162.006423 187.803885,162.726431 187.411649,163.23586 C187.019412,163.745289 186.342623,164 185.381259,164 Z" id="TRANSLATIONS-INC" fill="#EB8C30"></path>
        <g id="brand/logo/icon-colored" transform="translate(80.000000, 36.000000)">
            <g id="Group">
                <polyline id="Fill-142" fill="url(#linearGradient-1)" points="26.9228508 0 44.8767123 0 17.9598177 72 0 72 26.9228508 0"></polyline>
                <polyline id="Fill-145" fill="url(#linearGradient-2)" points="26.8767123 0 44.9338946 0 71.9967123 72 53.9445204 72 26.8767123 0"></polyline>
            </g>
        </g>
    </g>
</svg>